<svg width="81" height="111" viewBox="0 0 81 111" fill="none" xmlns="http://www.w3.org/2000/svg">
<path d="M55.4424 44.6712C54.0203 46.5497 52.322 48.0541 50.3474 49.1792C48.2755 50.3598 46.0976 51.3524 43.7034 51.8076C40.0122 52.5094 36.4106 52.2777 32.871 51.0143C28.0586 49.2968 24.3837 46.2063 21.9506 41.8218C20.9473 40.0139 20.4882 37.914 19.7602 35.9547C19.6424 35.6375 19.4827 35.2635 19.2229 35.0815C17.864 34.1295 17.7571 32.7358 17.9932 31.3586C18.203 30.1347 19.0514 29.2591 20.3219 28.8871C21.7617 28.4656 22.9984 28.8007 24.0919 29.8086C24.3343 30.032 24.7146 30.2218 25.0367 30.2302C26.6533 30.2726 28.2716 30.2496 30.004 30.2496C30.6887 27.1473 32.4991 24.8805 35.3967 23.4948C37.6794 22.4033 40.0762 22.218 42.487 22.927C47.0385 24.2655 49.9866 28.2625 49.4771 33.3046C49.0323 37.7057 46.0783 40.9064 41.4312 41.813C36.7379 42.7285 31.3399 40.016 29.9695 34.2451C28.3074 34.2451 26.6245 34.2227 24.9428 34.2546C24.112 34.2703 23.66 34.9967 23.8353 35.8818C24.232 37.8844 25.146 39.6852 26.3134 41.3169C27.8853 43.5143 29.8551 45.3506 32.3533 46.5282C36.617 48.538 40.9567 48.8237 45.4353 47.1569C49.3335 45.7062 52.1363 43.0774 54.0908 39.5556C55.3002 37.3765 55.9205 34.9465 55.9562 32.4731C55.9884 30.2406 55.4582 28.0584 54.5596 25.9704C53.0759 22.5226 50.5886 19.9802 47.3136 18.2069C46.0537 17.5246 44.6172 17.1411 43.2309 16.7177C42.9317 16.6263 42.4169 16.8563 42.1476 17.097C40.9933 18.1291 39.6267 18.3477 38.0801 17.7171C36.5385 17.0887 36.1064 15.8894 36.1531 14.3735C36.1985 12.8979 36.9113 11.7225 38.3402 11.2676C39.467 10.9088 40.7948 10.7528 41.6864 11.6138C42.6865 12.5795 43.9078 12.7217 45.0965 13.0759C50.2601 14.6145 54.3922 17.505 57.028 22.2027C58.0002 23.9356 58.9562 25.7876 59.3448 27.6989C59.783 29.8536 59.6457 32.1369 59.6262 34.3631C59.6038 36.906 58.8293 39.2863 57.5695 41.492C56.9509 42.5752 56.1899 43.5794 55.4424 44.6712ZM38.4446 26.5292C38.225 26.5999 38.0049 26.6691 37.7859 26.7415C34.4097 27.8586 31.9235 32.5566 35.4605 36.2883C37.8402 38.799 42.1855 38.6596 44.4081 35.6194C46.209 33.1562 45.6977 29.6213 43.2955 27.7285C41.865 26.6014 40.3236 26.3505 38.4446 26.5292Z" fill="#0D8F75"/>
<path d="M56.4381 57.6125C54.2108 58.7346 52.1263 60.0648 49.8456 60.8145C47.4115 61.6146 44.8032 61.933 42.2512 62.3421C38.2396 62.9851 34.2996 62.3233 30.5186 61.1024C27.9507 60.2733 25.4615 59.0697 23.1209 57.7227C18.9402 55.3166 15.7421 51.825 13.2521 47.7777C11.3126 44.6252 10.0143 41.1823 9.43023 37.4966C8.56753 32.0522 8.94809 26.7204 10.8681 21.5394C12.0664 18.3058 13.9151 15.4313 16.0954 12.7388C18.0037 10.3823 20.3177 8.4506 22.8164 6.82893C25.9051 4.8244 29.2841 3.28631 32.9989 2.66234C33.8512 2.51918 34.7332 2.47189 35.5486 2.21626C36.1381 2.03142 36.6446 1.58155 37.1782 1.23502C37.3121 1.14811 37.3914 0.981003 37.5235 0.889874C38.7246 0.0614199 41.2572 0.341728 42.2727 1.40779C43.5199 2.7173 43.6007 4.68734 42.4653 6.10854C41.4032 7.43811 39.274 8.05205 38.0016 6.99106C36.5508 5.78125 35.1692 6.08146 33.6839 6.46511C28.8592 7.7113 24.542 9.89666 20.9594 13.3673C16.6411 17.5504 13.9842 22.6436 13.136 28.5143C12.101 35.6775 13.9445 42.2009 18.292 48.0544C20.6981 51.2941 23.7492 53.8113 27.3002 55.6332C30.7053 57.3802 34.3699 58.418 38.2882 58.5991C42.8596 58.8104 47.1209 57.8943 51.2227 55.9642C53.8719 54.7176 56.17 53.0538 58.2804 51.0408C61.3668 48.0968 63.5888 44.6363 65.0184 40.6866C65.5497 39.2187 65.785 37.6418 66.092 36.1024C66.1947 35.587 66.1232 35.1074 65.6712 34.6123C64.6996 33.5481 64.6844 32.2157 65.0759 30.8911C65.5396 29.3221 66.859 28.8527 68.2865 28.6388C69.4743 28.4608 70.9763 29.3981 71.5484 30.5468C72.26 31.9756 72.1826 33.6005 71.0408 34.5623C70.1864 35.2819 70.1191 36.1487 69.9661 37.0481C69.2821 41.0695 68.0176 44.8883 65.6804 48.2742C64.391 50.1422 63.023 51.9974 61.4328 53.6115C59.9656 55.1008 58.1543 56.2604 56.4381 57.6125Z" fill="#0D8F75"/>
<path d="M10.8737 106.092C10.0337 106.092 9.26837 106.046 8.5777 105.952C7.9057 105.878 7.28037 105.747 6.7017 105.56C6.12304 105.374 5.59104 105.131 5.1057 104.832C4.63904 104.552 4.19104 104.207 3.7617 103.796C3.07104 103.143 2.5857 102.303 2.3057 101.276C2.0257 100.231 1.8857 99.139 1.8857 98.0003V88.8443H5.8057V97.5243C5.8057 98.3643 5.8897 99.083 6.0577 99.6803C6.24437 100.259 6.55237 100.735 6.9817 101.108C7.46704 101.519 8.0737 101.799 8.8017 101.948C9.5297 102.098 10.3137 102.172 11.1537 102.172H13.3937V88.8443H17.3137V106.092H10.8737ZM11.3217 85.8203C10.8737 86.175 10.3417 86.3523 9.7257 86.3523C9.1097 86.3523 8.56837 86.175 8.1017 85.8203C7.6537 85.4656 7.4297 84.943 7.4297 84.2523C7.4297 83.6363 7.64437 83.1416 8.0737 82.7683C8.5217 82.3763 9.07237 82.1803 9.7257 82.1803C10.379 82.1803 10.9204 82.3763 11.3497 82.7683C11.7977 83.1416 12.0217 83.6363 12.0217 84.2523C12.0217 84.943 11.7884 85.4656 11.3217 85.8203ZM22.6615 79.8843H26.5815V102.592H22.6615V79.8843ZM29.6538 98.6723H39.4258V94.3883C39.4258 93.8283 39.3605 93.343 39.2298 92.9323C39.1178 92.503 38.9312 92.1296 38.6698 91.8123C38.4272 91.495 38.0912 91.243 37.6618 91.0563C37.2512 90.851 36.7938 90.7483 36.2898 90.7483H34.6098V86.8283H35.8978C37.1672 86.8283 38.2778 86.9963 39.2298 87.3323C40.1818 87.6496 41.0125 88.1816 41.7218 88.9283C42.3192 89.563 42.7392 90.375 42.9818 91.3643C43.2245 92.335 43.3458 93.399 43.3458 94.5563V98.6723H46.3698V102.592H29.6538V98.6723ZM45.8457 98.6723H51.6977V86.8283H55.6177V98.6723H60.7697V102.592H45.8457V98.6723ZM58.0257 108.052C57.5964 108.388 57.083 108.556 56.4857 108.556C55.8884 108.556 55.375 108.388 54.9457 108.052C54.5164 107.716 54.3017 107.222 54.3017 106.568C54.3017 105.971 54.507 105.486 54.9177 105.112C55.347 104.739 55.8697 104.552 56.4857 104.552C57.1204 104.552 57.643 104.739 58.0537 105.112C58.4644 105.486 58.6697 105.971 58.6697 106.568C58.6697 107.222 58.455 107.716 58.0257 108.052ZM51.9497 108.052C51.5204 108.388 51.007 108.556 50.4097 108.556C49.8124 108.556 49.299 108.388 48.8697 108.052C48.4404 107.716 48.2257 107.222 48.2257 106.568C48.2257 105.971 48.431 105.486 48.8417 105.112C49.271 104.739 49.7937 104.552 50.4097 104.552C51.0257 104.552 51.539 104.739 51.9497 105.112C52.379 105.486 52.5937 105.971 52.5937 106.568C52.5937 107.222 52.379 107.716 51.9497 108.052ZM60.2012 98.6723H62.9172C62.8425 98.3923 62.7865 98.103 62.7492 97.8043C62.7305 97.5056 62.7212 97.1976 62.7212 96.8803C62.7212 95.6856 62.9358 94.575 63.3652 93.5483C63.8132 92.503 64.4105 91.5976 65.1572 90.8323C65.9225 90.0483 66.8092 89.4323 67.8172 88.9843C68.8438 88.5363 69.9358 88.3123 71.0932 88.3123C72.2692 88.3123 73.3705 88.5363 74.3972 88.9843C75.4425 89.4136 76.3478 90.011 77.1132 90.7763C77.8972 91.5416 78.5038 92.447 78.9332 93.4923C79.3812 94.5376 79.6052 95.667 79.6052 96.8803C79.6052 98.075 79.3718 99.1856 78.9052 100.212C78.4572 101.22 77.8412 102.098 77.0572 102.844C76.2732 103.591 75.3678 104.179 74.3412 104.608C73.3145 105.038 72.2318 105.252 71.0932 105.252C69.8985 105.252 68.7785 105.01 67.7332 104.524C66.6878 104.058 65.7732 103.414 64.9892 102.592H60.2012V98.6723ZM69.3292 100.996C69.8705 101.22 70.4585 101.332 71.0932 101.332C71.7278 101.332 72.3252 101.22 72.8852 100.996C73.4452 100.772 73.9305 100.464 74.3412 100.072C74.7705 99.6616 75.0972 99.1856 75.3212 98.6443C75.5638 98.0843 75.6852 97.4776 75.6852 96.8243C75.6852 96.171 75.5732 95.5643 75.3492 95.0043C75.1252 94.4443 74.8078 93.959 74.3972 93.5483C73.9865 93.1376 73.5012 92.8203 72.9412 92.5963C72.3812 92.3536 71.7652 92.2323 71.0932 92.2323C70.4398 92.2323 69.8425 92.3536 69.3012 92.5963C68.7598 92.839 68.2932 93.1656 67.9012 93.5763C67.5092 93.987 67.2012 94.4723 66.9772 95.0323C66.7532 95.5923 66.6412 96.1896 66.6412 96.8243C66.6412 97.459 66.7532 98.0563 66.9772 98.6163C67.2012 99.1576 67.5092 99.6336 67.9012 100.044C68.3118 100.436 68.7878 100.754 69.3292 100.996Z" fill="#CA9E68"/>
</svg>
