<svg width="26" height="27" viewBox="0 0 26 27" fill="none" xmlns="http://www.w3.org/2000/svg">
<g clip-path="url(#clip0_10295_220)">
<path d="M4.92908 5.55461L4.84677 5.6064L4.86791 5.93524C4.98688 7.78547 4.73724 9.39839 4.08729 10.739C3.43373 12.0869 2.39111 13.1252 0.987974 13.8409L0.635559 14.0208L0.719671 14.4334C1.31992 17.3742 2.87869 20.1265 5.24326 22.3886C7.43151 24.4826 10.061 25.8995 12.6325 26.3985H12.6341L12.7501 26.4217L12.8659 26.3987H12.8677C15.439 25.8995 18.0687 24.4826 20.257 22.3886C22.6215 20.1265 24.1801 17.3742 24.7806 14.4334L24.8647 14.0208L24.5123 13.8409C23.1089 13.1252 22.0665 12.0869 21.4129 10.739C20.7571 9.40129 20.4828 7.80176 20.6321 5.93546H20.6323L20.6535 5.60618L12.7501 0.650879L12.6856 0.691286L11.7244 1.29404C10.9772 1.7624 9.99625 2.37743 9.00107 3.00162L8.80744 3.12284L5.89052 4.95186L4.92908 5.55461Z" fill="#D9D7D9"/>
<path d="M12.7501 26.9912L12.5245 26.9466C9.83207 26.4242 7.10744 24.9483 4.85284 22.7907C2.41315 20.4567 0.793214 17.605 0.168448 14.5446L0 13.7179L0.730692 13.3449C2.02588 12.6843 2.98462 11.7261 3.58059 10.4972C4.17657 9.26803 4.42081 7.7453 4.30679 5.97119L4.26451 5.31218L4.62884 5.08291L8.70106 2.5297C9.69578 1.90573 10.6768 1.2907 11.4241 0.822341L12.7501 -0.00878906L21.2355 5.31151L21.1797 6.18127L21.1777 6.18327C21.0736 7.82991 21.3223 9.27964 21.9183 10.4952L21.9194 10.4974C22.5154 11.7266 23.4741 12.6845 24.7691 13.3451L25.5 13.7184L25.3316 14.5448C24.7066 17.6059 23.0866 20.4574 20.6469 22.7911C18.3926 24.9486 15.6679 26.4244 12.9755 26.9468L12.7501 26.9914V26.9912ZM12.7256 25.8482L12.7499 25.8529L12.7794 25.8473C15.2555 25.3622 17.7719 23.992 19.8668 21.9872C22.1409 19.8115 23.6495 17.1616 24.2293 14.3245C22.7189 13.5641 21.6064 12.4298 20.9071 10.9832C20.2073 9.53525 19.918 7.82924 20.071 5.90154L12.7499 1.31124L12.0244 1.76621C11.2773 2.23457 10.2963 2.8496 9.30109 3.47379L9.107 3.59523L5.4288 5.90154L5.42993 5.91829C5.55362 7.87835 5.27227 9.58169 4.59376 10.9814C3.89343 12.426 2.77546 13.5507 1.2709 14.3245C1.85023 17.1616 3.35862 19.8111 5.63323 21.9872C7.72973 23.9933 10.2477 25.3642 12.7254 25.8484L12.7256 25.8482Z" fill="#AFAFAF"/>
<path d="M12.7501 1.31104V2.48306C14.9429 3.84483 19.3407 6.62576 19.3407 6.62576C18.7673 12.7091 23.386 14.7705 23.386 14.7705C23.386 14.7705 24.2271 14.3214 24.2293 14.324C23.9635 14.1624 19.5638 12.301 20.0717 5.90022L12.7501 1.31104Z" fill="#888687"/>
<path d="M14.2045 9.23197L14.4539 9.11967L14.4346 9.07904L14.2333 8.96675L13.869 8.84419L13.5238 8.77276L13.217 8.75244H12.2965L11.9225 8.80334L11.6349 8.86473L11.376 8.93617L11.1747 9.04824L11.098 9.10963L11.1747 9.16053L11.3281 9.23197L11.5487 9.31367L11.8746 9.39538L12.1047 9.41569L12.6705 9.45655H12.9581L13.4662 9.41569L13.8593 9.34426L14.2045 9.23197Z" stroke="#EBAB01"/>
<path d="M12.879 5.84668C12.879 5.84668 15.0573 6.22731 15.3882 6.70862C15.3882 6.70862 16.4052 7.70829 15.137 8.59881C15.137 8.59881 11.7561 7.16291 10.6316 8.66176C10.6316 8.66176 9.7302 8.36552 9.73087 7.72459C9.73087 7.72459 9.6742 5.9833 12.879 5.84668Z" fill="#D9D7D9"/>
<path fill-rule="evenodd" clip-rule="evenodd" d="M15.0553 8.20363L15.0126 8.18555L14.7371 8.06991C14.8792 7.90315 14.9177 7.61851 14.915 7.35107C14.9125 7.07179 14.8659 6.81283 14.8489 6.72666C14.9098 6.78404 14.9645 6.84186 15.0126 6.90057C15.1875 7.11287 15.2804 7.33276 15.2879 7.55712C15.2881 7.56404 15.2881 7.57052 15.2883 7.57744C15.2917 7.92502 15.0859 8.16903 15.0553 8.20363ZM14.379 7.69129C14.252 7.65021 14.0035 7.58503 13.7466 7.53681C13.5078 7.49171 13.2615 7.46113 13.0983 7.47765C13.1853 7.24302 13.215 7.03741 13.2132 6.86463C13.21 6.53869 13.0974 6.33063 13.058 6.26768C13.1221 6.28375 13.3139 6.33041 13.555 6.36992C13.6175 6.37997 13.6828 6.38532 13.7466 6.39024L13.7635 6.39135C13.9304 6.40385 14.0876 6.41569 14.1955 6.5032C14.3768 6.65031 14.391 6.76997 14.4 6.84922L14.4013 6.86016C14.4204 7.01978 14.4339 7.19034 14.4355 7.33634C14.4371 7.50712 14.4218 7.64374 14.379 7.69129ZM12.4409 7.48903C12.2877 7.46626 12.0462 7.49551 11.8112 7.53971C11.5597 7.58704 11.3159 7.65111 11.1963 7.68683C11.1608 7.64039 11.1479 7.51895 11.1464 7.37987C11.1441 7.1564 11.1716 6.88851 11.181 6.81886C11.192 6.73939 11.21 6.60745 11.4021 6.47373C11.5258 6.38756 11.6645 6.38287 11.8112 6.37907H11.8157C11.8784 6.37706 11.9436 6.37528 12.0086 6.3668C12.236 6.33733 12.4152 6.28554 12.4757 6.26678C12.4411 6.33264 12.3408 6.5532 12.3444 6.90101C12.346 7.06845 12.3721 7.26557 12.4409 7.48903ZM10.5873 8.17707L10.5481 8.19336C10.5158 8.16055 10.2796 7.91431 10.276 7.56561V7.54663C10.2792 7.3149 10.3822 7.06532 10.5873 6.83672C10.6361 6.78225 10.6907 6.72889 10.7517 6.67733C10.7355 6.76283 10.6869 7.06353 10.6914 7.34415C10.6959 7.61338 10.7431 7.88529 10.8983 8.04959C10.881 8.05674 10.675 8.14112 10.5873 8.17707ZM15.2208 6.46592C15.1615 6.40787 15.0904 6.35898 15.0126 6.32125C14.8632 6.24915 14.6892 6.21812 14.5263 6.24066C14.2812 6.0201 14.0266 5.94174 13.7466 5.92746C13.6155 5.92054 13.4786 5.9279 13.3344 5.94152C13.2467 5.85066 13.105 5.80244 12.9836 5.80356C12.962 5.7732 12.9692 5.74105 13.0002 5.72073C13.0596 5.67787 13.1001 5.59817 13.0897 5.52205C13.0794 5.44302 13.0213 5.36176 12.9172 5.27961C12.8783 5.2488 12.8691 5.17602 12.9006 5.13606C12.9006 5.13606 12.9923 5.03538 13.0015 5.02533C12.9937 5.01328 12.787 4.70967 12.7742 4.69092C12.7607 4.70878 12.5511 4.98604 12.5403 5.00011C12.565 5.01953 12.6431 5.08382 12.6687 5.16776C12.677 5.19433 12.6838 5.25661 12.6602 5.27581C12.572 5.34747 12.4922 5.42628 12.4935 5.53276C12.4942 5.60085 12.5277 5.66537 12.5661 5.71805C12.594 5.79396 12.545 5.8165 12.4802 5.8328C12.3882 5.85579 12.2807 5.88727 12.2059 5.9509C12.0707 5.93951 11.9389 5.93393 11.8112 5.94174C11.5264 5.95893 11.262 6.04131 11.029 6.2708C10.8733 6.2103 10.7213 6.23441 10.5873 6.30808C10.5203 6.34469 10.4577 6.39381 10.4013 6.45029C10.0248 6.82824 9.83746 7.52029 9.99714 8.04937C10.2407 8.10228 10.4283 8.23332 10.5873 8.40008C10.7834 8.60569 10.9361 8.86577 11.0964 9.09905C11.1302 9.07182 11.3308 8.92359 11.8112 8.82536C12.0554 8.77535 12.3716 8.73807 12.7753 8.73629C13.1808 8.73428 13.4997 8.77111 13.7466 8.82223C14.2763 8.93207 14.4733 9.10799 14.476 9.11066C14.6842 8.89501 14.8232 8.64342 15.0126 8.44295C15.1293 8.31949 15.2651 8.21524 15.448 8.15095C15.6095 8.09424 15.6373 8.03932 15.6355 7.87323C15.6292 7.2111 15.4864 6.72577 15.2208 6.46592Z" fill="#EBAB01"/>
<path d="M10.0282 7.40794C10.0288 7.46308 10.072 7.50728 10.1244 7.50683C10.1771 7.50639 10.2193 7.46129 10.2189 7.40615C10.2184 7.35101 10.1753 7.30681 10.1226 7.30725C10.0698 7.30748 10.0277 7.3528 10.0282 7.40794ZM10.0136 7.74503C10.0142 7.80017 10.0574 7.8446 10.11 7.84415C10.1624 7.8437 10.2049 7.79861 10.2043 7.74347C10.2038 7.68833 10.1606 7.6439 10.108 7.64435C10.0556 7.6448 10.0131 7.68967 10.0136 7.74503ZM10.2814 7.38539V7.72606C10.2711 7.6756 10.2643 7.62203 10.2639 7.56577V7.54679C10.2645 7.49366 10.2704 7.43986 10.2814 7.38539ZM10.2814 7.02396V7.13982C10.2643 7.16483 10.2364 7.18135 10.2049 7.18179C10.1521 7.18202 10.1091 7.13759 10.1085 7.08245C10.108 7.02731 10.1503 6.98221 10.2029 6.98177C10.2353 6.98154 10.2641 6.99829 10.2814 7.02396ZM10.2938 7.33226V7.46464C10.2906 7.49232 10.2888 7.51978 10.2884 7.54679V7.56555C10.2888 7.5939 10.2906 7.6218 10.2938 7.64859V7.77673C10.2893 7.75999 10.2852 7.74325 10.2814 7.72606V7.38539C10.285 7.36753 10.2891 7.34989 10.2938 7.33226ZM10.2938 7.04896V7.11504C10.2909 7.12397 10.2866 7.13223 10.2814 7.13982V7.02396C10.2866 7.03155 10.2909 7.03981 10.2938 7.04896ZM10.2938 6.72749V6.78308C10.2915 6.7746 10.2902 6.76567 10.2902 6.75629C10.29 6.74625 10.2913 6.73642 10.2938 6.72749ZM10.2938 6.78308C10.3055 6.82527 10.3424 6.85564 10.3862 6.85541C10.4388 6.85497 10.4811 6.80987 10.4804 6.75473C10.48 6.69959 10.437 6.65516 10.3844 6.65561C10.3412 6.65606 10.3052 6.68619 10.2938 6.72749V6.78308ZM10.2938 7.11504C10.2974 7.10433 10.2994 7.09294 10.2992 7.08089C10.2989 7.06972 10.2971 7.05879 10.2938 7.04896V7.11504ZM10.5825 8.1654V8.1933L10.5524 8.20558L10.5452 8.20871L10.5394 8.2029C10.5232 8.18638 10.455 8.11539 10.3907 8.00489C10.3538 7.94126 10.3178 7.86447 10.2938 7.77673V7.64859C10.3097 7.78455 10.3594 7.9013 10.4118 7.99127C10.4687 8.08927 10.5286 8.1549 10.5511 8.17834L10.5825 8.1654ZM10.5825 6.82349V6.86122C10.5142 6.93913 10.458 7.01972 10.4136 7.10098C10.3473 7.22242 10.3073 7.3452 10.2938 7.46464V7.33226C10.3151 7.25122 10.348 7.16907 10.3923 7.08803C10.4413 6.99851 10.5047 6.90944 10.5825 6.82349ZM10.5825 6.41696V6.61632H10.5805C10.5279 6.61699 10.4847 6.57256 10.4845 6.51765C10.4838 6.46228 10.5259 6.41741 10.5787 6.41696H10.5825ZM10.5825 6.61632V6.41696C10.6334 6.41853 10.6743 6.46206 10.6748 6.51586C10.6754 6.57033 10.634 6.6152 10.5825 6.61632ZM10.8715 8.04685V8.07454L10.6864 8.15044L10.5825 8.1933V8.1654L10.6777 8.12633L10.8715 8.04685ZM10.8715 7.99863C10.8153 7.92452 10.7762 7.83321 10.7501 7.73298C10.7188 7.61176 10.7058 7.47781 10.7038 7.34409C10.702 7.23693 10.708 7.12665 10.717 7.02642C10.7314 6.86613 10.7537 6.73218 10.7636 6.67994L10.7703 6.64489L10.7438 6.66744C10.6844 6.71789 10.6309 6.77013 10.5825 6.82349V6.86122C10.6275 6.80987 10.6777 6.75919 10.7332 6.71008C10.7218 6.77616 10.7044 6.89113 10.6925 7.02441C10.6835 7.12509 10.6772 7.23626 10.679 7.34454C10.6815 7.48027 10.6943 7.61667 10.7265 7.74012C10.7564 7.85442 10.8025 7.95778 10.8715 8.03904V7.99863ZM10.8715 7.56287V7.73722C10.8428 7.72003 10.8234 7.68788 10.823 7.65082C10.8225 7.6131 10.8423 7.58006 10.8715 7.56287ZM10.8715 7.23113V7.41977C10.8349 7.40615 10.8083 7.36954 10.8079 7.32623C10.8072 7.28247 10.8342 7.24475 10.8715 7.23113ZM10.8715 6.87885V7.06035C10.8394 7.04472 10.8167 7.01034 10.8164 6.97061C10.816 6.92975 10.8387 6.8947 10.8715 6.87885ZM10.9113 8.04485V8.05846L10.9026 8.06204L10.8715 8.07454V8.04685L10.8765 8.04462L10.8715 8.03904V7.99863C10.8828 8.01315 10.8947 8.02721 10.9071 8.0406L10.9113 8.04485ZM10.9113 7.55059V7.7495C10.897 7.7486 10.8835 7.74414 10.8715 7.73722V7.56287C10.8835 7.55572 10.897 7.55148 10.9113 7.55059ZM10.9113 7.22599V7.42513C10.9089 7.42535 10.9066 7.42557 10.9041 7.42557C10.8927 7.42557 10.8819 7.42356 10.8715 7.41977V7.23113C10.8812 7.22778 10.8916 7.22577 10.9021 7.22577C10.9053 7.22555 10.9082 7.22577 10.9113 7.22599ZM10.9113 6.8697V7.0695C10.8972 7.0695 10.8837 7.06615 10.8715 7.06035V6.87885C10.8835 6.87327 10.8967 6.8697 10.9107 6.8697H10.9113ZM10.9113 6.55158V6.63686C10.9055 6.62436 10.9021 6.61029 10.9019 6.59511C10.9019 6.57948 10.905 6.56475 10.9113 6.55158ZM10.9113 6.63686V6.55158C10.9264 6.51809 10.9586 6.49488 10.9964 6.49465C11.049 6.49421 11.0919 6.53841 11.0926 6.59355C11.0933 6.64869 11.051 6.69378 10.9984 6.69445C10.9599 6.69445 10.9266 6.67124 10.9113 6.63686ZM10.9113 7.0695V6.8697C10.9635 6.8697 11.0063 6.9139 11.0067 6.96882C11.0074 7.02396 10.9651 7.06905 10.9125 7.0695H10.9113ZM10.9113 7.42513V7.22599C10.9597 7.23046 10.9979 7.27265 10.9986 7.32489C10.9991 7.37735 10.9606 7.42111 10.9113 7.42513ZM10.9113 7.7495V7.55059C10.9131 7.55059 10.9152 7.55059 10.9172 7.55059C10.9698 7.54992 11.013 7.59434 11.0134 7.64948C11.0139 7.70462 10.9718 7.74972 10.9192 7.74994C10.9163 7.75017 10.9138 7.74994 10.9113 7.74972V7.7495ZM10.9113 8.05846V8.04485L10.9203 8.05467L10.9113 8.05846ZM11.2329 7.7611V7.95845C11.2284 7.95934 11.2237 7.95979 11.219 7.95979C11.1664 7.96024 11.1232 7.91559 11.1227 7.86045C11.1223 7.80531 11.1644 7.76021 11.2172 7.75999C11.2224 7.75977 11.2278 7.76021 11.2329 7.7611ZM11.2329 6.62525V6.6766C11.2053 6.73308 11.1983 6.78286 11.1934 6.82081V6.82148H11.1931C11.1873 6.86456 11.1749 6.97953 11.1671 7.11281C11.1617 7.19898 11.1581 7.29297 11.1587 7.37981C11.1594 7.45348 11.1635 7.52201 11.1722 7.57671C11.1792 7.61823 11.1886 7.65149 11.2012 7.67203C11.2111 7.66913 11.2217 7.66623 11.2329 7.66288V7.68944C11.2208 7.69324 11.2098 7.69636 11.1994 7.69927L11.1918 7.70172L11.1866 7.69503C11.1686 7.67158 11.1563 7.63185 11.1482 7.5814C11.1389 7.52514 11.1349 7.45526 11.1342 7.38025C11.1333 7.2923 11.1369 7.19764 11.1423 7.11125C11.1506 6.97619 11.163 6.8601 11.1689 6.81746V6.81679C11.1756 6.76812 11.185 6.70048 11.2329 6.62525ZM11.2329 6.21783V6.41786C11.1808 6.41763 11.138 6.37321 11.1376 6.31851C11.1369 6.26337 11.1792 6.21828 11.2318 6.21783H11.2329ZM11.2329 6.41786H11.2336C11.2865 6.41719 11.3285 6.37209 11.3281 6.31695C11.3276 6.26203 11.2851 6.21806 11.2329 6.21783V6.41786ZM11.2329 7.95845V7.7611C11.2782 7.76847 11.313 7.80933 11.3135 7.85888C11.3141 7.90934 11.2788 7.95108 11.2329 7.95845ZM11.539 7.6948V7.8946C11.4871 7.8946 11.4444 7.8504 11.4439 7.79548C11.4432 7.74034 11.4855 7.69525 11.5381 7.6948H11.539ZM11.539 7.58385V7.61064C11.416 7.63944 11.3078 7.66801 11.2329 7.68944V7.66288C11.309 7.641 11.4169 7.61243 11.539 7.58385ZM11.539 6.39598V6.42277C11.4941 6.43616 11.4504 6.45559 11.4088 6.48461C11.313 6.55158 11.2617 6.61766 11.2329 6.6766V6.62525C11.2653 6.57368 11.3159 6.51854 11.3953 6.46318C11.4414 6.43103 11.4896 6.40982 11.539 6.39598ZM11.539 6.13769V6.32968C11.4997 6.31762 11.4709 6.27989 11.4704 6.23458C11.47 6.18859 11.499 6.14997 11.539 6.13769ZM11.539 6.32968V6.13769C11.5471 6.13546 11.5559 6.13389 11.5647 6.13389C11.6173 6.13345 11.6605 6.1781 11.6609 6.23301C11.6614 6.28838 11.6193 6.33325 11.5665 6.33369C11.557 6.33369 11.5478 6.33236 11.539 6.32968ZM11.539 7.8946V7.6948C11.5914 7.6948 11.6339 7.73923 11.6344 7.79392C11.6348 7.84906 11.5928 7.89416 11.5399 7.8946H11.539ZM11.8051 7.52782V7.55416C11.7133 7.57157 11.6227 7.59122 11.539 7.61064V7.58385C11.6229 7.56465 11.7136 7.54501 11.8051 7.52782ZM11.8051 6.36629V6.39218C11.7351 6.39419 11.6672 6.39643 11.602 6.40826C11.5809 6.41183 11.5597 6.41674 11.539 6.42277V6.39598C11.5586 6.3904 11.5782 6.38593 11.5984 6.38236C11.6652 6.37075 11.734 6.36807 11.8051 6.36629ZM11.8051 6.13568V6.17631C11.804 6.17006 11.8031 6.16358 11.8031 6.15689C11.8031 6.14974 11.8037 6.1426 11.8051 6.13568ZM11.9137 7.61689V7.81669C11.8615 7.81647 11.819 7.77249 11.8184 7.71735C11.8177 7.66221 11.86 7.61734 11.9126 7.61689H11.9137ZM11.9137 7.50862V7.53474C11.8775 7.54077 11.8411 7.54724 11.8051 7.55416V7.52782C11.8411 7.5209 11.8775 7.51442 11.9137 7.50862ZM11.9137 6.36249V6.38839H11.9119C11.88 6.3904 11.8478 6.39107 11.8159 6.39196H11.8051V6.36629H11.8157C11.8467 6.36517 11.8784 6.36428 11.911 6.36272H11.9137V6.36249ZM11.9137 6.05732V6.25467C11.909 6.25534 11.9043 6.25578 11.8995 6.25578C11.853 6.25623 11.8143 6.22185 11.8051 6.17609V6.13546C11.8141 6.09058 11.8519 6.05643 11.8975 6.05598C11.9029 6.05598 11.9083 6.05643 11.9137 6.05732ZM11.9137 6.25467V6.05732C11.9587 6.06491 11.9933 6.10576 11.9938 6.1551C11.9942 6.20533 11.9594 6.24708 11.9137 6.25467ZM11.9137 7.81647V7.61667C11.9659 7.61667 12.0084 7.66087 12.0088 7.71579C12.0093 7.77093 11.9672 7.8158 11.9146 7.81647H11.9137ZM12.2825 7.57604V7.77584C12.2304 7.77584 12.1876 7.73141 12.1872 7.67672C12.1867 7.62136 12.229 7.57648 12.2816 7.57604H12.2825ZM12.2825 7.46843V7.49433C12.182 7.49701 12.0657 7.51018 11.9461 7.52916C11.9355 7.53094 11.9245 7.53273 11.9137 7.53451V7.5084L11.9425 7.50348C12.0633 7.48429 12.1807 7.47111 12.2825 7.46843ZM12.2825 6.30467V6.33124C12.2059 6.34865 12.113 6.36651 12.01 6.37968C11.9783 6.38392 11.9456 6.38638 11.9137 6.38817V6.36227C11.9445 6.36048 11.9758 6.35781 12.0073 6.35379C12.1114 6.34039 12.2056 6.32209 12.2825 6.30467ZM12.2825 6.02317V6.18323C12.267 6.19573 12.2475 6.20288 12.2265 6.20288C12.1739 6.20355 12.1307 6.15912 12.1301 6.1042C12.1298 6.04884 12.1719 6.00374 12.2247 6.00352C12.2461 6.0033 12.2664 6.01066 12.2825 6.02317ZM12.8677 5.99816C12.8682 6.05308 12.9116 6.09751 12.9642 6.09706C13.0166 6.09661 13.0591 6.05152 13.0587 5.99638C13.058 5.94124 13.0148 5.89703 12.9622 5.89748C12.9096 5.8977 12.8671 5.94302 12.8677 5.99816ZM12.6862 6.30534C12.6869 6.36071 12.7299 6.40491 12.7825 6.40446C12.8351 6.40402 12.8772 6.35892 12.8767 6.30378C12.8763 6.24864 12.8331 6.20444 12.7805 6.20488C12.7278 6.20511 12.6856 6.2502 12.6862 6.30534ZM12.6779 6.69245C12.6786 6.74759 12.7218 6.79201 12.7744 6.79156C12.8268 6.79112 12.8693 6.74602 12.8686 6.69088C12.8682 6.63574 12.825 6.59132 12.7721 6.59199C12.7197 6.59243 12.6775 6.6373 12.6779 6.69245ZM12.677 7.18559C12.6775 7.24073 12.7204 7.28515 12.773 7.28471C12.8259 7.28426 12.868 7.23917 12.8673 7.18402C12.8671 7.12888 12.8241 7.08468 12.7712 7.08513C12.7184 7.08557 12.6763 7.13067 12.677 7.18559ZM12.6817 7.6727C12.6822 7.72784 12.7251 7.77227 12.7778 7.77182C12.8306 7.77137 12.8727 7.72606 12.872 7.67092C12.8716 7.61577 12.8286 7.57135 12.776 7.5718C12.7233 7.57224 12.6811 7.61734 12.6817 7.6727ZM12.4807 5.99504C12.4811 6.05018 12.5243 6.0946 12.5769 6.09393C12.6296 6.09371 12.6718 6.04862 12.6712 5.99347C12.6707 5.93833 12.6275 5.89368 12.5749 5.89435C12.5225 5.89458 12.4802 5.93967 12.4807 5.99504ZM12.6332 5.524C12.6341 5.61352 12.704 5.68562 12.7895 5.68518C12.8751 5.68428 12.9437 5.61106 12.9428 5.52132C12.9422 5.4318 12.8718 5.35947 12.7863 5.36036C12.7011 5.36103 12.6323 5.43425 12.6332 5.524ZM12.2825 6.18323V6.02317C12.3055 6.04125 12.3206 6.07005 12.321 6.10242C12.3212 6.13568 12.3059 6.16492 12.2825 6.18323ZM12.2825 7.49433V7.46843C12.3338 7.4671 12.3815 7.46843 12.4233 7.47335C12.3936 7.37445 12.3723 7.28046 12.3577 7.19206C12.3408 7.08736 12.3329 6.99003 12.332 6.90118C12.3309 6.76701 12.3446 6.65159 12.3644 6.55649C12.3907 6.42969 12.4274 6.33883 12.4517 6.28771C12.4179 6.29753 12.3687 6.31115 12.3073 6.32544L12.2825 6.33124V6.30467L12.3023 6.30021C12.3826 6.28123 12.4424 6.2636 12.4724 6.25422L12.5011 6.24529L12.4865 6.27297C12.4656 6.31293 12.4197 6.41138 12.3885 6.56185C12.3691 6.65539 12.3554 6.76879 12.3568 6.90073C12.3574 6.98824 12.3651 7.08401 12.3822 7.1876C12.3975 7.28069 12.4204 7.38003 12.4526 7.48495L12.4589 7.50482L12.4391 7.5017C12.3941 7.495 12.3408 7.49277 12.2825 7.49433ZM12.2825 7.77584V7.57604C12.3347 7.57604 12.3772 7.62024 12.3779 7.67516C12.3784 7.73052 12.3361 7.77539 12.2834 7.77584H12.2825ZM13.2534 7.5805V7.7803C13.2013 7.7803 13.1587 7.73588 13.1583 7.68118C13.1576 7.62604 13.1999 7.58095 13.2525 7.5805H13.2534ZM13.2534 6.29954V6.3261L13.2375 6.32276C13.1727 6.30869 13.1201 6.29641 13.0843 6.28748C13.1115 6.33615 13.1527 6.42165 13.1835 6.53997C13.2069 6.62971 13.2244 6.73821 13.2253 6.86434C13.2264 6.95676 13.2183 7.05812 13.1979 7.16817C13.1806 7.2606 13.1542 7.35882 13.1167 7.46308C13.1581 7.45973 13.2039 7.45928 13.2534 7.46107V7.48719C13.1968 7.48518 13.1446 7.48607 13.0994 7.49076L13.0794 7.49254L13.0868 7.4729C13.1275 7.36329 13.1556 7.26015 13.1736 7.16349C13.1941 7.05499 13.2017 6.9552 13.201 6.86479C13.1997 6.74111 13.1824 6.63463 13.1596 6.54667C13.1232 6.4058 13.0717 6.31293 13.0476 6.27476L13.0303 6.2473L13.0609 6.25489C13.0926 6.26293 13.1565 6.27878 13.2426 6.29731L13.2534 6.29954ZM13.2534 6.00665V6.19462C13.2172 6.18077 13.1909 6.14439 13.1905 6.10152C13.19 6.05799 13.2163 6.02049 13.2534 6.00665ZM13.2534 6.19462V6.00665C13.2633 6.00307 13.2739 6.00084 13.2849 6.00084C13.3375 6.0004 13.3807 6.0446 13.3814 6.09996C13.3816 6.1551 13.3396 6.2002 13.2867 6.20064C13.275 6.20064 13.264 6.19841 13.2534 6.19462ZM13.2534 7.7803V7.5805C13.3056 7.5805 13.3483 7.6247 13.3488 7.67962C13.3495 7.73476 13.3072 7.77986 13.2546 7.7803H13.2534ZM13.6378 7.62359V7.81848C13.6315 7.82004 13.625 7.82093 13.6184 7.82093C13.5656 7.82138 13.5226 7.77673 13.522 7.72181C13.5215 7.66645 13.5638 7.62158 13.6162 7.62113C13.6238 7.62091 13.6308 7.6218 13.6378 7.62359ZM13.6378 7.50415V7.5305H13.6364C13.5013 7.50773 13.3681 7.49143 13.2534 7.48719V7.46107C13.3688 7.46531 13.5022 7.48161 13.6378 7.50415ZM13.6378 6.36763V6.39375C13.6092 6.39062 13.5809 6.38727 13.5532 6.38259H13.553C13.4394 6.36406 13.3369 6.34419 13.2534 6.3261V6.29954C13.338 6.31762 13.4421 6.33816 13.5568 6.35714C13.5834 6.36138 13.6106 6.36473 13.6378 6.36763ZM13.6378 6.06022V6.26003C13.5856 6.2598 13.5431 6.2156 13.5426 6.16091C13.5422 6.10554 13.5843 6.06067 13.6369 6.06022H13.6378ZM13.6378 6.26003V6.06022C13.69 6.06022 13.7327 6.10443 13.7331 6.15934C13.7336 6.21471 13.6915 6.25958 13.6389 6.26003H13.6378ZM13.6378 7.81848V7.62359C13.6801 7.63341 13.7122 7.6727 13.7127 7.72048C13.7131 7.76825 13.681 7.80888 13.6378 7.81848ZM13.9661 7.69547V7.86424C13.9396 7.84683 13.922 7.81602 13.9218 7.78097C13.9214 7.74481 13.9391 7.71311 13.9661 7.69547ZM13.9661 7.56889V7.59546C13.8613 7.5718 13.7489 7.54903 13.6378 7.5305V7.50415L13.6403 7.5046C13.7507 7.52291 13.8622 7.54545 13.9661 7.56889ZM13.9661 6.39933V6.42567C13.9023 6.41473 13.8332 6.4096 13.7626 6.40424C13.7286 6.40178 13.694 6.39933 13.6576 6.39576L13.6378 6.39375V6.36763C13.6452 6.36852 13.6526 6.36919 13.66 6.36986C13.694 6.37299 13.7295 6.37589 13.7646 6.37834C13.8341 6.3837 13.9023 6.38884 13.9661 6.39933ZM13.9661 6.12608V6.32588C13.914 6.32588 13.8714 6.28168 13.8708 6.22699C13.8701 6.17162 13.9124 6.12675 13.965 6.12608H13.9661ZM13.9661 6.32588V6.12608C14.0183 6.1263 14.0608 6.17028 14.0615 6.2252C14.0617 6.28034 14.0197 6.32566 13.967 6.32588H13.9661ZM13.9661 7.86424V7.69547C13.9805 7.68587 13.9976 7.68029 14.0161 7.68029C14.0687 7.67984 14.1116 7.72405 14.1123 7.77919C14.1128 7.83455 14.0707 7.87942 14.0181 7.87987C13.999 7.88009 13.981 7.87429 13.9661 7.86424ZM14.2886 7.77718V7.96492C14.2526 7.95086 14.2266 7.9147 14.2261 7.87206C14.2259 7.82852 14.2517 7.79147 14.2886 7.77718ZM14.2886 7.65038V7.67739C14.2018 7.65239 14.0894 7.62336 13.9661 7.59546V7.56889C14.0889 7.59635 14.2014 7.62537 14.2886 7.65038ZM14.2886 6.57256C14.2652 6.54667 14.2371 6.5201 14.2032 6.49264H14.2029C14.1474 6.44755 14.0795 6.4221 14.0041 6.40625C13.9915 6.40379 13.9789 6.40134 13.9661 6.39933V6.42567C13.9771 6.42746 13.9882 6.42969 13.9992 6.43192C14.0712 6.44688 14.1357 6.47099 14.1879 6.51341C14.2302 6.54756 14.263 6.57993 14.2886 6.61096V6.57256ZM14.2886 6.21716V6.41696C14.2365 6.41674 14.1939 6.37254 14.1933 6.31762C14.1928 6.26248 14.2351 6.21761 14.2877 6.21716H14.2886ZM14.2886 6.41696V6.21716C14.3408 6.21716 14.3835 6.26136 14.384 6.31628C14.3844 6.37142 14.3422 6.41629 14.2895 6.41696H14.2886ZM14.2886 7.96492V7.77718C14.2988 7.77361 14.3093 7.7716 14.3206 7.77137C14.3734 7.77093 14.4166 7.81513 14.417 7.87027C14.4175 7.92541 14.3752 7.97051 14.3224 7.97095C14.3107 7.97095 14.2992 7.96894 14.2886 7.96492ZM14.447 7.29408C14.4456 7.23559 14.4425 7.17398 14.438 7.11192C14.4319 7.02842 14.4236 6.94225 14.4134 6.85854L14.4123 6.8476C14.4076 6.80697 14.4015 6.75585 14.3734 6.69557C14.3556 6.65784 14.3291 6.61654 14.2886 6.57256V6.61096C14.3174 6.64534 14.3372 6.67749 14.3512 6.7074C14.3775 6.76344 14.3833 6.8121 14.3876 6.85072H14.3878L14.3889 6.86211C14.3988 6.94426 14.4074 7.02999 14.4132 7.11393C14.4191 7.19184 14.4224 7.26707 14.4231 7.3365C14.424 7.42557 14.4202 7.50482 14.4103 7.56711C14.4027 7.61667 14.3912 7.6544 14.375 7.67627C14.3503 7.66846 14.3212 7.65975 14.2886 7.65038V7.67739C14.3217 7.68677 14.3509 7.6957 14.3754 7.70373L14.3829 7.70619L14.3883 7.70016C14.4101 7.6756 14.4254 7.63051 14.4346 7.57135C14.4413 7.52849 14.4456 7.47781 14.447 7.422V7.29408ZM14.447 6.58864V6.61498C14.4465 6.61096 14.4461 6.60694 14.4461 6.60293C14.4461 6.59801 14.4463 6.59333 14.447 6.58864ZM14.5099 7.6448C14.5106 7.69994 14.5538 7.74436 14.6064 7.74392C14.659 7.74369 14.7013 7.6986 14.7006 7.64323C14.7002 7.58787 14.6568 7.54367 14.6044 7.54411C14.5518 7.54456 14.5097 7.58965 14.5099 7.6448ZM14.447 6.61498V6.58864C14.453 6.54019 14.4926 6.50247 14.5405 6.50202C14.5931 6.50157 14.6363 6.54622 14.637 6.60136C14.6374 6.6565 14.5952 6.70138 14.5428 6.70182C14.4937 6.70249 14.453 6.66432 14.447 6.61498ZM14.447 7.422V7.29408C14.4474 7.30815 14.4476 7.32221 14.4479 7.33605C14.4481 7.36574 14.4479 7.39454 14.447 7.422ZM14.729 7.3077V7.36842C14.7168 7.40838 14.6811 7.4374 14.639 7.43785C14.5864 7.4383 14.5432 7.3941 14.5428 7.33873C14.5423 7.28359 14.5844 7.23827 14.637 7.23805C14.68 7.2376 14.7166 7.26685 14.729 7.3077ZM14.729 6.92573V7.02597C14.7126 7.05566 14.6824 7.07553 14.6473 7.07575C14.5949 7.0762 14.5518 7.03177 14.5511 6.97641C14.5506 6.92127 14.5927 6.8764 14.6453 6.87595C14.6811 6.8755 14.7123 6.8956 14.729 6.92573ZM14.729 8.08056L14.7159 8.07498L14.7279 8.06114L14.729 8.0598V8.08056ZM14.8563 6.49331C14.8567 6.54845 14.8999 6.59288 14.9525 6.59243C15.0052 6.59199 15.0474 6.54689 15.0468 6.49153C15.0463 6.43639 15.0031 6.39218 14.9507 6.39263C14.8981 6.3933 14.8558 6.43817 14.8563 6.49331ZM14.729 7.02597C14.7373 7.01123 14.742 6.9936 14.742 6.97507C14.7418 6.95676 14.7371 6.94024 14.729 6.92573V7.02597ZM14.729 7.36842C14.7321 7.3586 14.7335 7.34811 14.7335 7.33717C14.7333 7.3269 14.7319 7.31685 14.729 7.3077V7.36842ZM15.1626 6.65293H15.1617C15.1091 6.65338 15.0668 6.6987 15.0672 6.75384C15.0679 6.80875 15.1104 6.85273 15.1626 6.85273V6.65293ZM14.9028 7.35101C14.9015 7.21238 14.8891 7.07821 14.8752 6.96815C14.8612 6.85854 14.8455 6.77259 14.8369 6.7295L14.8293 6.69066L14.8574 6.71723C14.9876 6.83979 15.0895 6.96569 15.1626 7.09383V7.14585L15.1597 7.14072C15.092 7.01235 14.9948 6.88644 14.8686 6.76321C14.8772 6.81076 14.8891 6.88086 14.8997 6.9648C14.9138 7.07553 14.926 7.21037 14.9273 7.35079C14.9289 7.4979 14.9179 7.65015 14.8844 7.78588C14.8581 7.89237 14.8174 7.98881 14.7575 8.06427L15.0522 8.18794C15.0715 8.16562 15.1174 8.10825 15.1626 8.02319V8.07409C15.1181 8.14999 15.0767 8.19821 15.0643 8.21228L15.0585 8.21897L15.0506 8.21563L14.7326 8.0819L14.729 8.08056V8.0598C14.7917 7.98613 14.8336 7.88835 14.8605 7.77941C14.8936 7.64636 14.9042 7.49612 14.9028 7.35101ZM15.1626 6.85273V6.65293C15.2148 6.65293 15.2573 6.69736 15.2579 6.75205C15.2584 6.80742 15.2161 6.85229 15.1637 6.85273H15.1626ZM15.2685 7.03691C15.2636 7.04919 15.2611 7.06258 15.2611 7.07665C15.2613 7.09026 15.2638 7.10276 15.2685 7.11437V7.03691ZM15.2685 7.82384C15.2604 7.85397 15.2512 7.88255 15.2411 7.90956C15.2172 7.97319 15.1893 8.02855 15.1626 8.07409V8.02319C15.1819 7.98703 15.201 7.94595 15.2181 7.90018C15.2404 7.84036 15.2588 7.77271 15.2685 7.69882V7.82384ZM15.1626 7.09383C15.1689 7.10522 15.1754 7.11661 15.1812 7.12799C15.2195 7.20032 15.2485 7.2731 15.2685 7.34677V7.47178C15.2541 7.36217 15.2186 7.25323 15.1626 7.14585V7.09383ZM15.2807 7.01481V7.13647C15.2757 7.12978 15.2717 7.12263 15.2685 7.11437V7.03691C15.2717 7.02909 15.2757 7.0215 15.2807 7.01481ZM15.2685 7.34677C15.273 7.36351 15.2771 7.3807 15.2807 7.39789V7.77271C15.2771 7.79035 15.273 7.80732 15.2685 7.82384V7.69882C15.2735 7.6602 15.2764 7.61979 15.2759 7.5776L15.2755 7.55751C15.2746 7.52893 15.2723 7.50036 15.2685 7.47178V7.34677ZM15.3416 7.39454C15.3421 7.44968 15.385 7.49388 15.4379 7.49344C15.4905 7.49299 15.5328 7.4479 15.5321 7.39276C15.5316 7.33761 15.4887 7.29319 15.4361 7.29364C15.3832 7.29408 15.3412 7.3394 15.3416 7.39454ZM15.3747 7.73744C15.3751 7.79258 15.4183 7.83701 15.4709 7.83656C15.5238 7.83611 15.5656 7.79102 15.5651 7.73566C15.5647 7.68051 15.5217 7.63631 15.4689 7.63676C15.4163 7.63721 15.3742 7.6823 15.3747 7.73744ZM15.2807 7.13647V7.01481C15.298 6.99137 15.325 6.97619 15.3553 6.97596C15.4079 6.97552 15.4509 7.02016 15.4516 7.07508C15.452 7.13022 15.41 7.17532 15.3573 7.17576C15.3261 7.17599 15.2984 7.16058 15.2807 7.13647ZM15.2807 7.39789C15.2919 7.45035 15.2984 7.50326 15.3002 7.55639V7.57715C15.3011 7.64681 15.2937 7.71222 15.2807 7.77271" fill="black"/>
<path fill-rule="evenodd" clip-rule="evenodd" d="M10.7562 6.226V6.26574C10.7429 6.26842 10.7294 6.27154 10.7161 6.27534C10.6053 6.30726 10.502 6.37624 10.4139 6.46465C10.2263 6.65306 10.0862 6.92095 10.0136 7.2076C9.94383 7.48397 9.93709 7.77731 10.0118 8.03292C10.2654 8.09074 10.4586 8.23205 10.6219 8.40908L10.702 8.3756L10.7029 8.37381L10.7044 8.37471L10.7562 8.35283V8.37314L10.7272 8.3852L10.7562 8.39904V8.41935L10.7042 8.3948L10.6352 8.42382C10.6772 8.47048 10.7175 8.51959 10.7562 8.57004V8.63322C10.5605 8.36979 10.3311 8.14186 9.99331 8.06864L9.97959 8.05547C9.8993 7.79048 9.90538 7.48486 9.97779 7.19777C10.052 6.90466 10.1957 6.62985 10.3885 6.43652C10.4809 6.34387 10.5893 6.27132 10.7069 6.23783C10.7231 6.23314 10.7395 6.22913 10.7562 6.226ZM10.852 8.5975V8.658L10.827 8.66604C10.8356 8.67787 10.8436 8.6897 10.852 8.70175V8.76806C10.8209 8.72229 10.789 8.6772 10.7562 8.63322V8.57004C10.7764 8.59661 10.796 8.62317 10.8155 8.65019L10.843 8.64148L10.852 8.5975ZM10.852 8.44413V8.46467L10.7562 8.41935V8.39904L10.852 8.44413ZM10.852 8.31264V8.33296L10.7562 8.37314V8.35283L10.852 8.31264ZM10.852 6.21729V6.25636C10.8196 6.25614 10.7876 6.25926 10.7562 6.26574V6.226C10.7876 6.21997 10.8196 6.21707 10.852 6.21729ZM11.1965 8.56826L11.1484 8.54325L10.8625 8.63501L10.8978 8.46579L10.852 8.44413V8.46467L10.8772 8.47673L10.852 8.5975V8.658L11.1466 8.56334L11.1965 8.58902V8.56826ZM11.1965 8.39122V8.45708L11.1385 8.44927L11.1965 8.39122ZM11.1965 8.24589V8.26532L11.0913 8.23295L10.852 8.33296V8.31264L11.0901 8.21308L11.1965 8.24589ZM11.1965 6.11058V6.15657C11.1437 6.19296 11.0917 6.2356 11.0416 6.28494L11.0224 6.28918C10.9649 6.26663 10.9077 6.25659 10.852 6.25636V6.21729C10.9086 6.21729 10.9664 6.22734 11.0249 6.24855C11.0802 6.19497 11.1378 6.14921 11.1965 6.11058ZM11.1965 9.05626C11.1659 9.07345 11.1437 9.08841 11.1284 9.09912C11.1506 9.11341 11.1733 9.12725 11.1965 9.14042V9.18686C11.1563 9.16431 11.1178 9.1402 11.0809 9.11386V9.11006C11.042 9.05336 11.004 8.99599 10.966 8.93817C10.9284 8.88169 10.8907 8.82454 10.852 8.76806V8.70175C10.8868 8.75131 10.9208 8.80177 10.9541 8.85222L11.1965 8.76382V8.78346L10.9649 8.86829L10.9964 8.91584C11.0303 8.96741 11.0645 9.01876 11.0985 9.06854C11.1295 9.04555 11.1623 9.02434 11.1965 9.00402V9.05626ZM11.3168 8.52874V8.56L11.273 8.62005C11.273 8.62005 11.2719 8.62116 11.2712 8.62228L11.3168 8.64304V8.66358L11.2752 8.64438C11.2685 8.65822 11.2096 8.779 11.2096 8.779L11.1965 8.78346V8.76382H11.1967C11.2001 8.75734 11.264 8.62608 11.2649 8.62429L11.1965 8.58902V8.56826L11.2631 8.60241L11.3168 8.52874ZM11.3168 8.22312V8.25594L11.2961 8.28742L11.2995 8.29903L11.3168 8.30081V8.47338L11.1965 8.45708V8.39122L11.2826 8.3055L11.2786 8.29054L11.1965 8.26532V8.24589L11.284 8.27291L11.3168 8.22312ZM11.3168 6.0425V6.08558C11.2761 6.10612 11.2361 6.12956 11.1965 6.15657V6.11058C11.2361 6.08491 11.2764 6.06236 11.3168 6.0425ZM11.1965 9.14042C11.2356 9.1623 11.2757 9.18262 11.3168 9.20137V9.24736C11.2755 9.22861 11.2354 9.20874 11.1965 9.18686V9.14042ZM11.3168 8.99621C11.2678 9.01787 11.228 9.03863 11.1965 9.05626V9.00402C11.235 8.9817 11.2752 8.96094 11.3168 8.94219V8.99621ZM11.5975 8.43565V8.45887L11.4821 8.54995L11.5975 8.62608V8.64818L11.4826 8.57227C11.4743 8.58634 11.4048 8.70332 11.4048 8.70332L11.3168 8.66358V8.64304L11.3976 8.67988C11.405 8.66738 11.4734 8.55263 11.474 8.55107C11.4734 8.55084 11.3618 8.51646 11.351 8.51334L11.3168 8.56V8.52874L11.3377 8.50039L11.3306 8.47539L11.3168 8.47338V8.30081L11.488 8.31756L11.3476 8.46958L11.3546 8.49503L11.4749 8.53209C11.4799 8.5283 11.553 8.4707 11.5975 8.43565ZM11.5975 8.06663V8.08561C11.5271 8.10146 11.4581 8.11976 11.3931 8.14097L11.3168 8.25594V8.22312L11.3821 8.12512L11.385 8.124C11.4522 8.1019 11.5242 8.08293 11.5975 8.06663ZM11.5975 5.94918V5.98892L11.5842 5.99182C11.4923 6.01191 11.403 6.04183 11.3168 6.08558V6.0425C11.4009 6.00164 11.4878 5.97284 11.5773 5.95342C11.584 5.95208 11.5908 5.95052 11.5975 5.94918ZM11.3168 9.20137C11.4059 9.242 11.5001 9.27549 11.5975 9.30339V9.3467C11.4997 9.31969 11.4054 9.28687 11.3168 9.24736V9.20137ZM11.5975 8.89687C11.4817 8.92968 11.389 8.96429 11.3168 8.99621V8.94219C11.4045 8.90223 11.4992 8.86963 11.5975 8.84307V8.89687ZM11.88 8.61112V8.63009L11.6229 8.66514L11.5975 8.64818V8.62608L11.627 8.64572L11.88 8.61112ZM11.88 8.38542V8.40417L11.6378 8.42717L11.5975 8.45887V8.43565L11.6312 8.40886L11.88 8.38542ZM11.88 8.01685V8.15459C11.8683 8.16821 11.8611 8.18607 11.8613 8.20571C11.8613 8.22491 11.8685 8.2421 11.88 8.25549V8.37939C11.8073 8.35819 11.7538 8.28876 11.7529 8.20593C11.7525 8.13226 11.7936 8.06842 11.8539 8.03962C11.7687 8.05167 11.6818 8.06708 11.5975 8.08561V8.06663C11.6906 8.04609 11.7862 8.0298 11.88 8.01685ZM11.88 5.91949V5.95856C11.7835 5.96101 11.689 5.97017 11.5975 5.98892V5.94918C11.6893 5.93065 11.7837 5.92195 11.88 5.91949ZM11.5975 9.30339C11.6893 9.32951 11.7839 9.35072 11.88 9.36746V9.40876C11.7839 9.39247 11.6893 9.37193 11.5975 9.3467V9.30339ZM11.88 8.8319C11.8449 8.83816 11.8112 8.84508 11.7788 8.852C11.7127 8.86628 11.6526 8.88146 11.5975 8.89687V8.84307C11.689 8.81806 11.7837 8.79842 11.88 8.78257V8.8319ZM11.9326 8.6042V8.62295L11.88 8.63009V8.61112L11.9326 8.6042ZM11.9326 8.27983V8.39926L11.88 8.40417V8.38542L11.8989 8.38386C11.8926 8.38252 11.886 8.38096 11.88 8.37939V8.25549C11.893 8.27023 11.9117 8.2796 11.9326 8.27983ZM11.9326 8.01015V8.13048H11.9319C11.9112 8.1307 11.8928 8.13985 11.88 8.15459V8.01685C11.8975 8.01462 11.9151 8.01238 11.9326 8.01015ZM11.9326 5.91882V5.95766C11.9148 5.95766 11.8975 5.95811 11.88 5.95856V5.91949C11.8975 5.91904 11.9148 5.91882 11.9326 5.91882ZM11.88 9.36746C11.8975 9.37059 11.9148 9.37349 11.9326 9.37639V9.41702C11.9148 9.41457 11.8975 9.41166 11.88 9.40876V9.36746ZM11.9326 8.82253C11.9146 8.82543 11.8973 8.82856 11.88 8.8319V8.78257C11.8975 8.77989 11.9148 8.77699 11.9326 8.77453V8.82253ZM11.9803 8.5975V8.61648L11.9326 8.62295V8.6042L11.9803 8.5975ZM11.9803 8.26085V8.39457L11.9326 8.39926V8.27983H11.9333C11.9515 8.2796 11.9679 8.27246 11.9803 8.26085ZM11.9803 8.00457V8.02332L11.9569 8.026C11.9648 8.02756 11.9726 8.0298 11.9803 8.03225V8.1499C11.9677 8.13762 11.9508 8.13048 11.9326 8.13048V8.01015C11.9486 8.00814 11.9643 8.00636 11.9803 8.00457ZM11.9803 5.91927V5.95811C11.9641 5.95789 11.9483 5.95766 11.9326 5.95766V5.91882C11.9483 5.91882 11.9641 5.91882 11.9803 5.91927ZM11.9326 9.37639C11.9483 9.37907 11.9643 9.3813 11.9803 9.38376V9.42439C11.9643 9.42193 11.9483 9.4197 11.9326 9.41702V9.37639ZM11.9803 8.81449C11.9639 8.81717 11.9481 8.81985 11.9326 8.82253V8.77453C11.9483 8.77208 11.9643 8.76984 11.9803 8.76761V8.81449ZM12.3615 8.54571V8.56446L11.9803 8.61648V8.5975L12.3615 8.54571ZM12.3615 8.33988V8.35863L11.9803 8.39457V8.26085C11.9949 8.24701 12.0041 8.2267 12.0039 8.2046C12.0037 8.18272 11.9947 8.16352 11.9803 8.1499V8.03225C12.0489 8.05614 12.0986 8.12333 12.0993 8.20325C12.1002 8.28251 12.052 8.35037 11.9848 8.3756L12.3615 8.33988ZM12.3615 7.9751V7.99363C12.2578 7.9981 12.1242 8.00703 11.9803 8.02332V8.00457C12.1242 7.98827 12.2578 7.97957 12.3615 7.9751ZM12.3615 5.84694V5.88824C12.3552 5.89025 12.3491 5.8927 12.343 5.89493C12.2969 5.91302 12.2531 5.93579 12.2175 5.96615L12.2043 5.97039C12.1285 5.96414 12.0538 5.95967 11.9803 5.95811V5.91927C12.0525 5.92061 12.126 5.92485 12.2005 5.93088C12.2382 5.90007 12.2834 5.87685 12.3304 5.85854C12.3408 5.85453 12.3511 5.85073 12.3615 5.84694ZM11.9803 9.38376C12.1076 9.40229 12.236 9.41412 12.3615 9.42171V9.461C12.2367 9.45363 12.1082 9.44225 11.9803 9.42439V9.38376ZM12.3615 8.7723C12.3433 8.77319 12.3248 8.77453 12.3064 8.77565C12.1874 8.78569 12.079 8.79909 11.9803 8.81449V8.76761C12.0968 8.75221 12.2135 8.74171 12.3268 8.73502C12.3383 8.73412 12.3498 8.73323 12.3615 8.73234V8.7723ZM12.6131 8.46735V8.49101L12.5565 8.5379L12.3615 8.56446V8.54571L12.5493 8.52004L12.6131 8.46735ZM12.6131 8.25951V8.28563L12.5792 8.31979L12.6131 8.36444V8.39457L12.5706 8.33899L12.3615 8.35863V8.33988L12.5513 8.3218L12.6131 8.25951ZM12.6131 7.99341V8.01462L12.5691 7.98894C12.5601 7.98894 12.4807 7.98872 12.3615 7.99363V7.9751C12.4874 7.96974 12.5691 7.97019 12.5715 7.97019H12.5738L12.6131 7.99341ZM12.6131 5.29062V5.34196C12.5925 5.36161 12.5736 5.3817 12.558 5.40313C12.5295 5.44175 12.5113 5.48417 12.5119 5.53239C12.5122 5.56364 12.5203 5.59423 12.5326 5.62325C12.5452 5.65294 12.5625 5.68107 12.581 5.70629L12.5837 5.71121C12.6005 5.75786 12.5931 5.78912 12.5706 5.81189C12.5508 5.8322 12.5198 5.84314 12.4847 5.85185C12.4454 5.86167 12.4029 5.87328 12.3617 5.88824V5.84694C12.4004 5.83376 12.4397 5.82327 12.4764 5.81412C12.5061 5.80653 12.5317 5.79805 12.5454 5.78398C12.5565 5.77282 12.5596 5.75541 12.5499 5.72773C12.5308 5.70094 12.5126 5.67124 12.4991 5.63954C12.4847 5.60584 12.4757 5.57012 12.4753 5.53306C12.4746 5.47479 12.4957 5.42456 12.529 5.37947C12.5522 5.34777 12.5817 5.31852 12.6134 5.29062H12.6131ZM12.6131 4.87315V4.93544L12.5664 4.99683C12.5794 5.00777 12.5961 5.02273 12.6131 5.04103V5.10064C12.6059 5.09104 12.5983 5.08189 12.5907 5.07318C12.5659 5.04527 12.5412 5.02518 12.5293 5.01603L12.5259 4.98835L12.6131 4.87315ZM12.3615 9.42171C12.4472 9.42684 12.5313 9.42997 12.6131 9.43153V9.4706C12.532 9.46881 12.4476 9.46614 12.3615 9.461V9.42171ZM12.6131 8.76292C12.532 8.76449 12.4474 8.76739 12.3615 8.7723V8.73234C12.4409 8.72631 12.5245 8.72207 12.6131 8.71961V8.76292ZM12.6727 8.43141V8.45016H12.6622L12.6131 8.49101V8.46735L12.6467 8.43945L12.6131 8.39457V8.36444L12.6637 8.43163H12.6727V8.43141ZM12.6727 8.19901V8.22491L12.6131 8.28541V8.25929L12.6727 8.19901ZM12.6727 8.02801V8.04944L12.6131 8.01439V7.99318L12.6727 8.02801ZM12.6727 5.12698V5.28972L12.6714 5.29106C12.6511 5.30758 12.6314 5.32433 12.6131 5.34174V5.29039C12.6248 5.28013 12.6368 5.2703 12.6489 5.26026C12.6538 5.25624 12.6563 5.24575 12.6574 5.23369C12.6592 5.21204 12.6554 5.18748 12.6514 5.17386C12.6431 5.14707 12.6289 5.12229 12.6131 5.10041V5.04081L12.6179 5.04617C12.6377 5.06871 12.6581 5.09595 12.6727 5.12698ZM12.6727 4.7939V4.85619L12.6131 4.93522V4.87293L12.6727 4.7939ZM12.6131 9.43131C12.6329 9.43176 12.6532 9.4322 12.6727 9.43243V9.47149C12.6532 9.47105 12.6332 9.47082 12.6131 9.47038V9.43131ZM12.6727 8.76181C12.6532 8.76203 12.6332 8.76248 12.6131 8.7627V8.71939C12.6327 8.71872 12.6527 8.71827 12.6727 8.71783V8.76181ZM12.6727 5.28972V5.12698C12.6779 5.13792 12.6826 5.14953 12.6865 5.16136C12.6916 5.17877 12.6964 5.2098 12.6943 5.23659C12.6928 5.2578 12.6865 5.27789 12.6727 5.28972ZM12.7499 8.34233V8.54928C12.7074 8.53745 12.6754 8.49793 12.6736 8.44994H12.6727V8.43119H12.6745C12.6799 8.3881 12.7103 8.35283 12.7499 8.34233ZM12.7499 8.12088V8.15883C12.7398 8.16843 12.7337 8.18249 12.7337 8.19812C12.7339 8.21352 12.74 8.22714 12.7499 8.23674V8.27157C12.7254 8.25862 12.7085 8.23205 12.7083 8.20125C12.7083 8.19656 12.7087 8.19209 12.7098 8.1874L12.6727 8.22491V8.19901L12.7499 8.12088ZM12.7499 8.07333V8.09476L12.6727 8.04944V8.02801L12.7499 8.07333ZM12.7499 4.69166V4.75417L12.7177 4.79658L12.6727 4.85619V4.7939L12.6889 4.7727L12.7499 4.69166ZM12.6727 9.43243C12.6988 9.43287 12.7247 9.43309 12.7499 9.43332V9.47194C12.7247 9.47194 12.6988 9.47172 12.6727 9.47149V9.43243ZM12.7499 8.76114C12.7247 8.76114 12.6988 8.76114 12.6727 8.76181V8.71783C12.6982 8.71738 12.7238 8.71693 12.7499 8.71671V8.76114ZM12.7845 8.33921V8.55218C12.7818 8.55241 12.7793 8.55263 12.7766 8.55263C12.7674 8.55263 12.7584 8.55151 12.7499 8.54928V8.34233C12.758 8.3401 12.7661 8.33899 12.7746 8.33899C12.778 8.33876 12.7814 8.33899 12.7845 8.33921ZM12.7845 8.25081V8.28027C12.7721 8.28027 12.7604 8.27715 12.7499 8.27157V8.23674C12.7591 8.24545 12.7712 8.25081 12.7845 8.25081ZM12.7845 8.08962V8.14477H12.7838C12.7708 8.14477 12.7589 8.15012 12.7499 8.15883V8.12088L12.7663 8.10436L12.7499 8.09476V8.07333L12.7796 8.09074L12.7814 8.08918L12.7827 8.09074L12.7845 8.08962ZM12.7845 4.67938V4.73943L12.7733 4.72314L12.7499 4.75417V4.69166L12.76 4.67871L12.7845 4.67938ZM12.7499 9.43332H12.7845V9.47216H12.7499V9.43332ZM12.7845 8.76091H12.7499V8.71671H12.7845V8.76091ZM12.8156 8.34769V8.54415C12.8059 8.54861 12.7955 8.55129 12.7845 8.55218V8.33921C12.7955 8.34033 12.8059 8.34323 12.8156 8.34769ZM12.8156 8.24031V8.27335C12.8063 8.27782 12.796 8.28027 12.7852 8.28027H12.7845V8.25081H12.7847C12.796 8.25081 12.8068 8.24679 12.8156 8.24031ZM12.8156 8.07199V8.09342L12.796 8.10458L12.8156 8.12557V8.15995C12.8072 8.15124 12.7967 8.14499 12.7845 8.14477V8.08962C12.7913 8.08561 12.8021 8.07958 12.8156 8.07199ZM12.8156 4.718V4.7852L12.7845 4.73943V4.67938H12.7892L12.8156 4.718ZM12.7845 9.43332H12.8156V9.47216H12.7845V9.43332ZM12.8156 8.76069H12.7845V8.71649H12.8156V8.76069ZM12.9287 8.36265V8.39234L12.8983 8.43074L12.9287 8.45463V8.47784L12.8839 8.44279H12.8774V8.4448C12.8778 8.48945 12.8524 8.52785 12.8156 8.54415V8.34769C12.8457 8.36131 12.8686 8.38944 12.8754 8.42426H12.8805L12.9287 8.36265ZM12.9287 8.24567V8.27224L12.8603 8.19968V8.20035C12.8608 8.23272 12.8423 8.26085 12.8156 8.27335V8.24031C12.829 8.23049 12.8376 8.21464 12.8349 8.19745C12.8333 8.18651 12.8263 8.17133 12.8156 8.15995V8.12557L12.9287 8.24567ZM12.9287 8.01104V8.03203C12.8866 8.05346 12.8434 8.07757 12.8156 8.09342V8.07199C12.8455 8.05525 12.888 8.03181 12.9287 8.01104ZM12.9287 5.0772V5.13301L12.9145 5.14886L12.9134 5.15042C12.9024 5.16583 12.8983 5.18748 12.9008 5.20869C12.9033 5.22945 12.912 5.24954 12.9262 5.26182L12.9287 5.26405V5.31361C12.9217 5.30758 12.9141 5.30133 12.9062 5.29508H12.9057L12.903 5.29263H12.9026C12.8812 5.27343 12.8677 5.24396 12.8641 5.2136C12.8605 5.18324 12.8668 5.15087 12.8837 5.1272L12.8841 5.12676L12.8862 5.12386L12.8875 5.12252L12.9287 5.0772ZM12.9287 4.88432V4.95151L12.8326 4.8102L12.8156 4.7852V4.718L12.8628 4.78743L12.9287 4.88432ZM12.8156 9.43332C12.8529 9.43332 12.8907 9.43287 12.9287 9.43198V9.47105C12.8907 9.47172 12.8529 9.47216 12.8156 9.47216V9.43332ZM12.9287 8.76136C12.8902 8.76091 12.8524 8.76069 12.8156 8.76069V8.71649C12.8542 8.71649 12.8918 8.71693 12.9287 8.7176V8.76136ZM12.9287 5.13301V5.0772L12.9777 5.0234L12.9287 4.95151V4.88432L13.0166 5.01357L13.0148 5.03858L12.9287 5.13301ZM13.5939 8.60219V8.62116L13.0081 8.54013L12.9287 8.47784V8.45463L13.015 8.52227L13.5939 8.60219ZM13.5939 8.06328V8.17089C13.5849 8.18249 13.5793 8.19767 13.5795 8.21419C13.5798 8.23004 13.5851 8.24478 13.5939 8.25594V8.3948L12.9835 8.32291C12.9804 8.32715 12.9521 8.36287 12.9287 8.39234V8.36265L12.9676 8.31354L12.9287 8.27224V8.24567L12.984 8.30416L13.5833 8.37471C13.524 8.35193 13.4812 8.29233 13.4808 8.22223C13.4799 8.14655 13.528 8.0827 13.5939 8.06328ZM13.5939 8.03895V8.05792L13.0366 7.98492C13.0139 7.99006 12.9721 8.0097 12.9287 8.03203V8.01104C12.9712 7.98961 13.0114 7.97108 13.0342 7.96617H13.0355L13.5939 8.03895ZM13.5939 5.90587V5.94472C13.5105 5.9465 13.4246 5.95253 13.3362 5.96079L13.3216 5.95521C13.2813 5.91346 13.2285 5.88109 13.1718 5.85877C13.1104 5.83466 13.0445 5.8226 12.9835 5.82305L12.9689 5.81501C12.9671 5.813 12.9658 5.81055 12.9642 5.80809C12.9539 5.79046 12.9505 5.77215 12.9541 5.75451C12.9575 5.73755 12.9674 5.72192 12.9831 5.70942C12.9853 5.70786 12.9876 5.70607 12.9901 5.70451C13.0177 5.68442 13.0409 5.65539 13.056 5.62258C13.0697 5.59177 13.076 5.55761 13.0717 5.52457C13.0668 5.48863 13.0508 5.45157 13.0238 5.41362C13.0002 5.38081 12.9687 5.34732 12.9287 5.31361V5.26405C12.9822 5.30624 13.0236 5.34844 13.0537 5.39018C13.0843 5.43305 13.1025 5.47613 13.1084 5.51899C13.1138 5.56007 13.1061 5.60182 13.0893 5.63932C13.0717 5.67817 13.0438 5.71277 13.0105 5.73665H13.0099C13.0085 5.73799 13.0069 5.73933 13.0051 5.74045C12.997 5.74692 12.9919 5.75451 12.9903 5.76233C12.9889 5.76902 12.9901 5.77639 12.9937 5.78398C13.056 5.78465 13.1228 5.79782 13.1848 5.82216C13.2433 5.84515 13.298 5.87841 13.3414 5.92105C13.4279 5.91302 13.5121 5.90744 13.5939 5.90587ZM12.9287 9.43198C13.1468 9.42729 13.3719 9.40899 13.5939 9.37148V9.41233C13.3706 9.44895 13.1446 9.46636 12.9287 9.47105V9.43198ZM13.5939 8.8136C13.4956 8.79775 13.3879 8.78413 13.2698 8.77409C13.1524 8.76627 13.0377 8.76248 12.9287 8.76136V8.7176C13.0425 8.72006 13.1486 8.72542 13.2478 8.73323C13.3609 8.73993 13.4779 8.75064 13.5939 8.76672V8.8136ZM13.6438 8.60933V8.62809L13.5939 8.62116V8.60219L13.6438 8.60933ZM13.6438 8.28094V8.4006L13.5939 8.3948V8.25594C13.6058 8.27134 13.6238 8.28094 13.6438 8.28094ZM13.6438 8.04542V8.14611H13.6432C13.6232 8.14633 13.6056 8.15593 13.5939 8.17089V8.06328C13.5989 8.06194 13.6036 8.0606 13.6085 8.05971L13.5939 8.05792V8.03895L13.6438 8.04542ZM13.6438 5.9052V5.94427C13.6272 5.94427 13.6108 5.94427 13.5939 5.94472V5.90587C13.6108 5.90543 13.6272 5.9052 13.6438 5.9052ZM13.5939 9.37148C13.6108 9.36858 13.6272 9.3659 13.6438 9.36277V9.40385C13.6272 9.40698 13.6106 9.40965 13.5939 9.41233V9.37148ZM13.6438 8.82231C13.6277 8.81918 13.611 8.8165 13.5939 8.8136V8.76672C13.6108 8.76895 13.6272 8.77141 13.6438 8.77364V8.82231ZM13.6825 8.61469V8.63344L13.6438 8.62809V8.60933L13.6825 8.61469ZM13.6825 8.26733V8.37761C13.6744 8.38029 13.6659 8.3823 13.6571 8.38341L13.6825 8.38631V8.40529L13.6438 8.4006V8.28094H13.6445C13.6587 8.28094 13.6722 8.27581 13.6825 8.26733ZM13.6825 8.05056V8.15995C13.672 8.15124 13.6585 8.14611 13.6438 8.14611V8.04542L13.6825 8.05056ZM13.6825 5.90565V5.94449C13.6699 5.94427 13.6567 5.94427 13.6438 5.94427V5.9052C13.6567 5.9052 13.6699 5.90543 13.6825 5.90565ZM13.6438 9.36277C13.6567 9.36054 13.6697 9.35786 13.6825 9.35541V9.39693C13.6697 9.39916 13.6567 9.40162 13.6438 9.40385V9.36277ZM13.6825 8.82923C13.6699 8.82677 13.6569 8.82454 13.6438 8.82231V8.77364C13.6567 8.77587 13.6697 8.77788 13.6825 8.78011V8.82923ZM13.9661 8.63835V8.66023L13.9502 8.6705L13.6825 8.63344V8.61469L13.9461 8.65108L13.9661 8.63835ZM13.9661 8.4198V8.43922L13.9654 8.43855L13.6825 8.40529V8.38631L13.9661 8.4198ZM13.9661 8.08739V8.10637L13.7019 8.07177C13.7554 8.09766 13.7927 8.15392 13.7934 8.21955C13.7941 8.29389 13.7473 8.35707 13.6825 8.37761V8.26733C13.6985 8.25505 13.7084 8.23518 13.7082 8.21308C13.7079 8.1912 13.698 8.17222 13.6825 8.15995V8.05056L13.9661 8.08739ZM13.9661 5.93422V5.97396L13.9612 5.97284C13.871 5.95476 13.7783 5.94628 13.6825 5.94449V5.90565C13.7799 5.90721 13.8744 5.91569 13.9661 5.93422ZM13.6825 9.35541C13.7781 9.3371 13.873 9.315 13.9661 9.28843V9.33152C13.873 9.35719 13.7783 9.37907 13.6825 9.39693V9.35541ZM13.9661 8.8962C13.9101 8.88012 13.849 8.86427 13.7819 8.84976C13.7502 8.84262 13.7172 8.83592 13.6825 8.82923V8.78011C13.7792 8.79574 13.8744 8.81561 13.9661 8.84061V8.8962ZM14.2511 8.30773V8.48521L14.2342 8.48967L14.2272 8.51378L14.2511 8.54705V8.57808L14.2137 8.52651C14.2032 8.52986 14.084 8.56558 14.084 8.56558H14.0833C14.0849 8.56826 14.1589 8.68903 14.1665 8.70198L14.2511 8.65845V8.67943L14.1604 8.72586C14.1604 8.72586 14.0846 8.60264 14.0761 8.58879L13.9661 8.66023V8.63835L14.0774 8.5658C14.0763 8.56446 13.976 8.45038 13.9661 8.43922V8.4198L13.974 8.42069C13.974 8.42069 14.0774 8.53812 14.0842 8.54593L14.2104 8.5082L14.2169 8.48499L14.0792 8.33899L14.2511 8.30773ZM14.2511 8.21598V8.24924C14.2212 8.20348 14.1789 8.13807 14.176 8.13383L13.9661 8.10637V8.08739L14.1863 8.11641L14.2511 8.21598ZM14.2511 6.02933V6.07241C14.1584 6.02553 14.0637 5.99383 13.9661 5.97396V5.93422H13.9682C14.0649 5.95387 14.1589 5.98445 14.2511 6.02933ZM13.9661 9.28843C14.0631 9.2612 14.1584 9.22928 14.2511 9.19244V9.23642C14.1589 9.27303 14.0635 9.30473 13.9661 9.33152V9.28843ZM14.2511 9.00023C14.1778 8.96674 14.084 8.93035 13.9661 8.8962V8.84061C14.0667 8.86852 14.1627 8.902 14.2511 8.94353V9.00023ZM14.3714 8.58254V8.6033L14.3017 8.6388C14.3023 8.64036 14.3642 8.7694 14.3669 8.77498L14.3714 8.77721V8.79775L14.3536 8.78927C14.3536 8.78927 14.2981 8.6734 14.2911 8.65867L14.2511 8.67943V8.65845L14.2934 8.63679L14.2511 8.57808V8.54705L14.3021 8.61804L14.3714 8.58254ZM14.3714 8.25326V8.27246L14.2922 8.29121L14.2853 8.31443L14.3714 8.41087V8.45329L14.2511 8.48521V8.30773L14.2697 8.30461L14.2749 8.28608L14.2511 8.24924V8.21598L14.2877 8.27291L14.3714 8.25326ZM14.3714 6.09719V6.1434C14.3318 6.11661 14.2916 6.09317 14.2511 6.07241V6.02933C14.2916 6.04897 14.3318 6.07174 14.3714 6.09719ZM14.2511 9.19244C14.2918 9.17637 14.332 9.15895 14.3714 9.14087V9.18485C14.332 9.20293 14.2918 9.22012 14.2511 9.23642V9.19244ZM14.3714 9.06207C14.3401 9.04376 14.3003 9.02255 14.2511 9.00023V8.94353C14.2929 8.96317 14.3334 8.98438 14.3714 9.0076V9.06207ZM14.3714 8.45329V8.41087L14.4022 8.44503L14.3714 8.45329ZM14.7384 8.46177V8.48409L14.7121 8.50195L14.7166 8.67965L14.7384 8.68903V8.70934C14.6428 8.66738 14.4355 8.57585 14.4301 8.57339L14.3714 8.6033V8.58254L14.4292 8.55285L14.6986 8.67139L14.6939 8.49168L14.6982 8.48901L14.7384 8.46177ZM14.7384 8.32247V8.34278C14.6204 8.29188 14.5054 8.24232 14.503 8.24143L14.3714 8.27246V8.25326L14.5048 8.22178L14.7384 8.32247ZM14.7384 6.2202V6.25971C14.6685 6.25056 14.5974 6.25033 14.5288 6.25993L14.5144 6.25547C14.4672 6.21283 14.4195 6.17577 14.3714 6.1434V6.09719C14.4256 6.13202 14.4789 6.17287 14.5322 6.21997C14.5999 6.21127 14.6696 6.21171 14.7384 6.2202ZM14.4411 9.10761C14.4263 9.09645 14.4031 9.0806 14.3714 9.06207V9.0076C14.4089 9.03037 14.4443 9.05515 14.4773 9.08149C14.5279 9.02813 14.5745 8.97255 14.6188 8.91584L14.3714 8.79775V8.77721L14.6305 8.90089C14.6676 8.85334 14.7033 8.80489 14.7384 8.7569V8.81784C14.664 8.91294 14.5133 9.10158 14.4888 9.12614C14.4506 9.1469 14.4112 9.16632 14.3714 9.18485V9.14087C14.395 9.13016 14.4182 9.11899 14.4411 9.10761ZM14.847 8.61089V8.67318C14.8234 8.70443 14.8 8.73636 14.7767 8.76828C14.7706 8.77654 14.7566 8.7944 14.7384 8.81784V8.7569L14.7474 8.74462L14.765 8.72095L14.7384 8.70934V8.68903L14.7762 8.70577C14.7996 8.67385 14.8232 8.64215 14.847 8.61089ZM14.847 8.36935V8.41042L14.7384 8.48409V8.46177L14.8459 8.38922L14.7384 8.34278V8.32247L14.847 8.36935ZM14.847 6.24074V6.28092C14.8113 6.27154 14.7751 6.2644 14.7384 6.25971V6.2202C14.7751 6.22466 14.8113 6.23158 14.847 6.24074ZM14.847 8.67318V8.61089C14.8905 8.55441 14.9348 8.49972 14.9822 8.44793L14.8659 8.39792L14.847 8.41042V8.36935L14.9957 8.43342C15.1147 8.30617 15.2539 8.19879 15.4424 8.13226C15.5188 8.10548 15.5633 8.0798 15.5879 8.04207C15.6121 8.00457 15.618 7.95233 15.6173 7.8733C15.6142 7.54424 15.5768 7.25894 15.5078 7.02409C15.439 6.79103 15.3387 6.60752 15.2085 6.48005C15.1237 6.397 15.0139 6.3336 14.895 6.29498C14.8792 6.28985 14.863 6.28516 14.847 6.28092V6.24074C14.8671 6.24565 14.8866 6.25145 14.906 6.25748C15.0299 6.29789 15.1446 6.36441 15.2336 6.45148C15.3686 6.58364 15.4725 6.7725 15.5433 7.01226C15.6133 7.25091 15.6508 7.53956 15.6542 7.87263C15.6549 7.95992 15.6477 8.01841 15.6182 8.06395C15.5885 8.10949 15.5386 8.13963 15.4536 8.16932C15.1752 8.26733 15.0067 8.46043 14.847 8.67318Z" fill="black"/>
<path fill-rule="evenodd" clip-rule="evenodd" d="M21.0954 13.7002C14.2583 8.65003 8.29759 10.6695 4.40799 13.952C6.28498 12.9983 8.21798 12.307 10.2254 11.9687C9.59885 12.6559 9.21315 13.5919 9.21315 14.6233C9.21315 16.2831 10.2115 17.6956 11.6054 18.2222C9.7565 18.1409 7.93731 17.7145 6.01646 17.0156C9.34966 19.0656 14.1112 20.2166 19.5069 16.5191C17.656 17.3513 15.9558 17.8597 14.3235 18.09C15.5557 17.4835 16.411 16.1594 16.411 14.6233C16.411 13.5573 15.9988 12.5931 15.3349 11.9002C17.184 12.1621 19.1001 12.7423 21.0954 13.7002Z" fill="black"/>
<path fill-rule="evenodd" clip-rule="evenodd" d="M15.7271 12.0846C15.7966 12.2192 15.8978 12.288 16.0048 12.3605C16.0593 12.3976 16.1153 12.4364 16.1679 12.4844C16.1393 12.4862 16.1067 12.4826 16.0721 12.4784C16.0082 12.4701 15.9362 12.4612 15.8618 12.4833C15.8616 12.4835 15.8009 12.5047 15.8009 12.5047L15.8092 12.5148C15.9277 12.6498 16.1321 12.6356 16.3305 12.6206C16.335 12.6275 16.3712 12.6851 16.3806 12.7003C16.2956 12.6764 16.1926 12.6594 16.1058 12.7057H16.0669V12.7347L16.0689 12.7374C16.1432 12.8296 16.2419 12.8467 16.3372 12.8633C16.436 12.8802 16.5376 12.899 16.6166 13.001C16.514 12.9568 16.3849 12.9394 16.2048 12.9456H16.1967V12.9747L16.1985 12.9769C16.3192 13.1314 16.5457 13.1513 16.7198 13.118C16.7243 13.1267 16.7839 13.2423 16.8021 13.2774C16.6604 13.2001 16.5264 13.1783 16.3339 13.2026L16.3267 13.2035V13.2316L16.3282 13.2341C16.4409 13.3787 16.6116 13.402 16.8496 13.3915C16.8536 13.3982 16.9732 13.6038 16.9755 13.608V13.6102C16.9346 13.5946 16.8943 13.5776 16.8518 13.5596C16.7295 13.5069 16.6031 13.4531 16.4488 13.4426L16.4402 13.4421V13.4712L16.4418 13.4736C16.5466 13.6256 16.765 13.7165 17.0272 13.7169C17.0308 13.7268 17.1206 13.9641 17.1217 13.967V13.9987C17.1028 13.9822 17.0493 13.9362 17.0493 13.9362C16.9143 13.8181 16.7868 13.7065 16.5635 13.6654L16.5538 13.6636V13.6933L16.5549 13.6955C16.6546 13.8895 16.8889 14.0487 17.1394 14.0927C17.1417 14.1025 17.186 14.29 17.1867 14.292V14.357C17.1671 14.3382 17.1127 14.2853 17.1127 14.2853C16.9966 14.1695 16.8765 14.0491 16.6764 14.0252L16.6674 14.0241V14.0534L16.6685 14.0554C16.7873 14.2764 16.9926 14.376 17.2103 14.4809C17.2103 14.4809 17.215 14.4831 17.2191 14.4851V14.6845C17.1673 14.6425 17.123 14.5961 17.0801 14.551C16.978 14.4427 16.8817 14.3407 16.6935 14.2996L16.6834 14.2974V14.3271L16.6843 14.3291C16.7848 14.5447 16.9942 14.7267 17.2195 14.7943C17.22 14.8052 17.2332 15.0403 17.2346 15.0647C17.152 15.0213 17.0983 14.9497 17.0416 14.8738C16.9649 14.7704 16.8858 14.6637 16.7261 14.6253L16.716 14.6229V14.653L16.7169 14.6546C16.8064 14.845 16.9831 15.0932 17.1882 15.1714C17.2024 15.2044 17.2078 15.2374 17.2078 15.2718C17.2078 15.3136 17.2004 15.3578 17.1918 15.4076C17.1918 15.4076 17.1894 15.4223 17.188 15.4303H17.1838C17.1799 15.4214 17.0886 15.2127 17.0886 15.2127C17 15.0408 16.9134 14.9928 16.8403 14.9682L16.8392 14.9678H16.8379C16.7996 14.9671 16.7756 14.9787 16.7666 15.0019C16.7639 15.0084 16.7625 15.016 16.7625 15.024C16.7625 15.1303 16.9739 15.3605 17.1388 15.5297C17.1388 15.5297 17.1491 15.5404 17.1534 15.5448C17.1518 15.5531 17.108 15.7683 17.1066 15.7759C17.1014 15.7786 17.0866 15.7866 17.085 15.7873C17.0785 15.7735 17.0153 15.6391 17.0153 15.6391C16.9258 15.4442 16.8487 15.2758 16.6807 15.141L16.6748 15.1363L16.6498 15.1627L16.6516 15.168C16.7645 15.4913 16.888 15.7464 17.0389 15.9708C17.0346 15.9791 16.9768 16.0862 16.9768 16.0862C16.9766 16.0864 16.9678 16.1052 16.9676 16.1054C16.9067 15.9795 16.848 15.8683 16.7915 15.7612L16.6651 15.5178L16.662 15.5165L16.6004 15.4951L16.6026 15.5094C16.6438 15.7605 16.7457 15.9465 16.8444 16.1262C16.8444 16.1262 16.9175 16.2632 16.9242 16.276C16.8786 16.3068 16.8648 16.324 16.848 16.3903H16.8435C16.8176 16.3271 16.7965 16.2653 16.776 16.2056C16.7238 16.0512 16.6741 15.9056 16.554 15.7956V15.7647L16.5378 15.7625C16.5297 15.7922 16.5266 15.8226 16.5266 15.8531C16.5266 15.977 16.5839 16.1063 16.6399 16.232C16.6888 16.3416 16.7353 16.4456 16.7353 16.5331C16.7353 16.5452 16.7344 16.5564 16.7324 16.5677C16.731 16.5702 16.6798 16.6787 16.6728 16.6937C16.5716 16.6113 16.4807 16.134 16.4728 15.9871V15.982L16.424 15.9565V15.9706C16.4243 16.3005 16.4641 16.58 16.5527 16.8758C16.503 16.9209 16.4641 16.9647 16.4213 17.0138C16.4171 16.9865 16.3105 16.2945 16.3105 16.2945V16.2356L16.2956 16.2565C16.2567 16.3115 16.2426 16.4378 16.2426 16.5773C16.2426 16.7635 16.268 16.9729 16.2941 17.0678C16.2864 17.1705 16.2556 17.2102 16.2203 17.256C16.2061 17.2741 16.1917 17.294 16.1773 17.3174C16.1717 17.2779 16.0822 16.6472 16.0822 16.6472H16.0536L16.0516 16.6524C16.0156 16.7316 16.006 16.8671 16.006 17.0156C16.006 17.1049 16.0096 17.1995 16.0127 17.2893C16.0127 17.2893 16.0177 17.4489 16.0179 17.4571C16.0118 17.4621 15.833 17.6036 15.829 17.6069H15.8256C15.8641 17.4152 15.8895 17.231 15.8895 16.9823C15.8895 16.9542 15.8895 16.9254 15.8888 16.8957V16.8872H15.8087L15.8074 16.8943C15.7898 16.999 15.77 17.0904 15.7507 17.1785C15.7113 17.3576 15.6772 17.513 15.6772 17.719C15.6772 17.7228 15.6774 17.7266 15.6774 17.7306C15.6697 17.7353 15.5251 17.8242 15.5026 17.838C15.5083 17.8108 15.524 17.732 15.524 17.732C15.553 17.5924 15.5807 17.46 15.5807 17.2725C15.5807 17.2614 15.5807 17.25 15.5805 17.2384V17.2297H15.5526L15.5503 17.2321C15.3895 17.3859 15.352 17.6536 15.352 17.8692C15.352 17.8864 15.352 17.9027 15.3526 17.919C15.3445 17.9239 15.1687 18.0302 15.1509 18.0409C15.1905 17.9425 15.2233 17.8427 15.2555 17.7208V17.5529L15.2454 17.5558C15.0614 17.6043 15.0283 17.7806 14.9935 17.9666C14.9847 18.0128 14.9757 18.0603 14.9647 18.1066C14.3406 18.2789 13.6337 18.3088 12.9469 18.3057C12.4312 18.3032 11.5843 18.3639 10.8371 18.2077C10.7971 18.1862 10.7706 18.1045 10.7398 18.0099C10.6975 17.8791 10.6446 17.7165 10.5293 17.6424L10.5275 17.6411H10.5002V17.65C10.5029 17.8 10.525 17.9963 10.6149 18.0824C10.6156 18.0845 10.6203 18.0994 10.6248 18.1139C10.6035 18.1043 10.4254 18.024 10.4184 18.0208C10.4166 18.013 10.3979 17.9311 10.3979 17.9311C10.3543 17.7378 10.3089 17.5377 10.2405 17.3721L10.2387 17.3681L10.1589 17.3473L10.1598 17.3591C10.1705 17.5089 10.2016 17.6362 10.2317 17.7592C10.2459 17.817 10.2592 17.8719 10.2702 17.928C10.2025 17.9056 10.1445 17.8659 10.1096 17.8161C10.0718 17.7619 10.0176 17.4717 9.97826 17.2596C9.95892 17.1562 9.9425 17.0674 9.93238 17.0305L9.93103 17.0258L9.85142 17.0046V17.0459C9.85142 17.3283 9.87795 17.5212 9.94137 17.6987C9.92451 17.6884 9.7736 17.5953 9.76865 17.5926C9.71198 17.4676 9.70073 17.2435 9.70073 17.0397C9.70073 16.964 9.70231 16.8917 9.70366 16.8276L9.70568 16.7158H9.67712L9.67465 16.7189C9.59931 16.8169 9.58266 16.9961 9.58266 17.1658C9.58266 17.2424 9.58604 17.3165 9.58873 17.3808C9.58873 17.3808 9.59076 17.4221 9.59121 17.4357H9.58671C9.49023 17.3565 9.46594 17.2426 9.46594 17.1084C9.46594 17.0446 9.47134 16.9761 9.47719 16.9046C9.48303 16.828 9.48911 16.7504 9.48911 16.6731C9.48911 16.5742 9.47921 16.4755 9.44593 16.3807V16.3387H9.39757C9.39757 16.3387 9.33393 17.129 9.33258 17.1442H9.32785C9.32313 17.1388 9.20776 17.0017 9.20281 16.9959C9.20416 16.9881 9.29952 16.3659 9.29952 16.3659V16.0474H9.2361C9.2361 16.0474 9.09554 16.7899 9.09104 16.8133C9.03211 16.7754 9.00872 16.7428 8.97611 16.6727C9.04673 16.5191 9.08631 16.3483 9.12815 16.167C9.15019 16.0699 9.17357 15.9695 9.20214 15.8701L9.20528 15.859H9.12387L9.12162 15.8641C9.09778 15.9228 9.06697 15.9782 9.03751 16.0317C8.96644 16.1597 8.89335 16.2918 8.89335 16.4914C8.89335 16.4932 8.89358 16.4954 8.89358 16.4974C8.87918 16.4822 8.81959 16.4195 8.81374 16.4133C8.84118 16.2746 8.90212 16.1414 8.96712 16.0009C9.0166 15.8933 9.06787 15.7819 9.10476 15.6647V15.602H9.02694L9.02447 15.6069C8.99456 15.6719 8.95565 15.7301 8.91809 15.7862C8.84163 15.9007 8.76246 16.0186 8.76246 16.1996C8.76246 16.2088 8.76291 16.2184 8.76359 16.228C8.71613 16.194 8.70241 16.1695 8.68375 16.0918C8.83016 15.8786 8.94665 15.6154 9.03976 15.2875L9.04021 15.2861V15.2591H8.96195L8.9597 15.2638C8.92304 15.3368 8.87491 15.3957 8.82836 15.4531C8.73975 15.5616 8.64844 15.675 8.63562 15.8864C8.58479 15.8498 8.5605 15.7891 8.55353 15.6819C8.59626 15.6252 8.64529 15.5725 8.69274 15.5216C8.81194 15.3942 8.93496 15.2622 8.97499 15.0468L8.97724 15.0345L8.96554 15.0363C8.74807 15.0727 8.5659 15.2859 8.53846 15.5335H8.53374C8.51957 15.5129 8.51283 15.4897 8.51283 15.4638C8.51283 15.3328 8.6725 15.1408 8.80542 14.9809C8.87896 14.8928 8.9426 14.816 8.97432 14.7581L8.97521 14.7561V14.7264L8.96554 14.7278C8.76516 14.7608 8.67655 14.8858 8.58277 15.0182C8.54903 15.0655 8.51462 15.1142 8.47437 15.1591L8.47212 15.1615V15.1653C8.45795 15.1294 8.45345 15.0798 8.45345 15.0249C8.45345 14.9997 8.45458 14.9736 8.4557 14.9472C8.46177 14.9437 8.48201 14.9307 8.48201 14.9307C8.6878 14.8015 8.88211 14.6798 8.99073 14.4492L8.99321 14.4434L8.9525 14.4003L8.9471 14.4032C8.73435 14.5121 8.61763 14.62 8.47054 14.7691C8.46852 14.7459 8.4575 14.6159 8.45638 14.6048C8.72805 14.4878 8.88211 14.3619 9.02244 14.1418L9.03166 14.127L9.01502 14.1282C8.80407 14.1416 8.69702 14.2458 8.58344 14.3561C8.55466 14.3842 8.5243 14.4128 8.49281 14.44C8.49866 14.4081 8.53419 14.2217 8.53599 14.2121C8.81801 14.1351 9.01457 13.9958 9.12005 13.7982L9.1214 13.7964V13.7674L9.11218 13.7683C8.87941 13.7893 8.75819 13.8993 8.62977 14.0163C8.62977 14.0163 8.58479 14.056 8.56028 14.0777C8.56927 14.0451 8.6147 13.8761 8.61673 13.869C8.70129 13.8266 8.7854 13.7969 8.86704 13.7685C8.98646 13.727 9.09958 13.6875 9.19899 13.6127L9.20124 13.6109L9.22215 13.5444L9.20956 13.5453C9.00805 13.5631 8.83533 13.6431 8.68937 13.7169H8.68645C8.74335 13.5399 8.8965 13.5073 9.05843 13.4734C9.12005 13.4604 9.18414 13.4468 9.24532 13.4252L9.24779 13.4243L9.32133 13.3272L9.31054 13.3229C9.15716 13.2658 8.99613 13.3015 8.87918 13.3464C8.88953 13.3332 8.93608 13.2745 8.93923 13.2705C8.97207 13.2611 9.37193 13.1475 9.40814 13.1338L9.41062 13.1329L9.44997 13.0704L9.44098 13.0662C9.32875 13.0142 9.14929 13.0528 9.04178 13.0899C9.1277 12.9867 9.25611 12.9619 9.40364 12.9345L9.52374 12.9108L9.52531 12.9081L9.57569 12.8371V12.8099L9.56894 12.8088C9.46842 12.79 9.37531 12.776 9.26736 12.7885C9.3355 12.7309 9.49675 12.7043 9.62967 12.6827C9.69061 12.6728 9.74347 12.6646 9.78057 12.6543L9.78395 12.6534L9.80509 12.6088L9.79946 12.6045C9.72053 12.5431 9.60515 12.5398 9.44862 12.5931C9.5062 12.5266 9.57614 12.4768 9.64473 12.4291C9.73762 12.3648 9.83342 12.2982 9.89909 12.1877L9.90314 12.1806L9.89684 12.1759C9.74346 12.0645 9.54173 12.3016 9.43356 12.4288C9.43356 12.4288 9.42321 12.4409 9.41332 12.4518V12.2217L9.40207 12.2264C9.32943 12.2569 9.30559 12.3541 9.2804 12.4567C9.25679 12.5527 9.23182 12.651 9.1684 12.7132C9.1657 12.6847 9.13669 12.3632 9.13669 12.3632H9.10903L9.10656 12.3663C9.04808 12.4463 9.03864 12.5639 9.02919 12.678C9.01885 12.8088 9.00782 12.9318 8.93046 13.001C8.93451 12.9767 8.93721 12.9523 8.93721 12.9278C8.93721 12.8492 8.91832 12.7706 8.9001 12.6936L8.87626 12.586L8.86974 12.5856H8.83061L8.82903 12.5925C8.80384 12.7034 8.79125 12.8249 8.79125 12.9521C8.79125 13.0465 8.79845 13.1446 8.81239 13.2439C8.80991 13.2481 8.76853 13.3207 8.76629 13.3247C8.76359 13.3263 8.75392 13.3314 8.74514 13.3359C8.74065 13.3169 8.64889 12.9285 8.64889 12.9285H8.58547V12.9439C8.58547 13.0586 8.59491 13.16 8.60391 13.258C8.61201 13.3448 8.6192 13.4245 8.6192 13.5031C8.6192 13.5645 8.61448 13.6252 8.60233 13.687C8.60009 13.6895 8.59289 13.6971 8.59042 13.6998H8.58344C8.55938 13.6294 8.53779 13.5538 8.5171 13.4803C8.49618 13.4062 8.47662 13.3363 8.45548 13.2767L8.45458 13.2745L8.3581 13.1932V13.2115C8.36035 13.3796 8.38981 13.514 8.41859 13.6442C8.44378 13.7587 8.46807 13.8685 8.46807 13.9893C8.46807 14.0317 8.4647 14.0757 8.4575 14.1217C8.39138 14.0768 8.3581 13.9543 8.32594 13.835C8.29895 13.733 8.27308 13.637 8.22766 13.5839C8.22698 13.5826 8.20314 13.5325 8.20314 13.5325L8.19662 13.5511C8.17188 13.6189 8.16176 13.6823 8.16176 13.7431C8.16176 13.8788 8.21214 13.9991 8.26094 14.1165C8.30974 14.2335 8.3599 14.3539 8.3599 14.488C8.3599 14.4994 8.35945 14.5108 8.35855 14.5222H8.35562C8.35202 14.5139 8.33538 14.4751 8.33538 14.4751C8.25869 14.2947 8.17121 14.0902 8.03064 13.9757L8.02502 13.971L8.00006 13.9973L8.00163 14.0027C8.04864 14.1429 8.09429 14.2585 8.13815 14.3704C8.21169 14.5575 8.28118 14.7345 8.34078 14.9892C8.33471 14.9921 8.32751 14.9959 8.32099 14.9992C8.31492 14.9881 8.2886 14.9401 8.2886 14.9401C8.21663 14.8079 8.14242 14.6713 8.01355 14.5921L7.99691 14.5816L8.00141 14.6017C8.0745 14.9135 8.16401 15.0937 8.3419 15.2883V15.4013C8.33898 15.4047 8.32594 15.4183 8.31851 15.4263C8.29445 15.3962 8.27174 15.3638 8.24947 15.3321C8.18875 15.2446 8.126 15.1542 8.02907 15.1055C8.0293 15.1055 7.99691 15.0888 7.99691 15.0888L7.95103 15.0642L7.95261 15.0803C7.9742 15.3031 8.08125 15.4091 8.1847 15.5118C8.27668 15.6031 8.37136 15.698 8.40487 15.8759H8.40173C8.34168 15.8315 8.29355 15.7759 8.24677 15.7221C8.17098 15.6348 8.09249 15.5444 7.9634 15.4995L7.94653 15.4935L7.95306 15.5109C8.0212 15.6891 8.1359 15.7882 8.24722 15.884C8.34955 15.9721 8.44626 16.0556 8.50428 16.1952V16.1969C8.41634 16.1623 8.34955 16.0998 8.27961 16.0326C8.19887 15.9554 8.11543 15.8757 7.99534 15.8422L7.98499 15.8391V15.8694L7.98589 15.8715C8.07855 16.071 8.20651 16.1559 8.34235 16.2454C8.42916 16.3028 8.5189 16.3621 8.60233 16.4548C8.60346 16.459 8.61201 16.4956 8.61425 16.5046C8.5162 16.4655 8.43209 16.4135 8.34393 16.3581C8.24407 16.2956 8.14085 16.2306 8.0122 16.1849L8.00523 16.1827L7.98387 16.2277L7.98612 16.2318C8.09789 16.4398 8.24745 16.4905 8.43659 16.555C8.50046 16.5767 8.5668 16.599 8.63944 16.6298C8.70444 16.6691 8.74132 16.7539 8.77326 16.8303C8.668 16.7979 8.57985 16.745 8.48741 16.6887C8.35495 16.6079 8.21821 16.5242 8.02637 16.5101L8.0095 16.5088L8.01895 16.5238C8.12578 16.6899 8.37721 16.7966 8.57895 16.8825C8.7249 16.9441 8.85107 16.9977 8.87851 17.054C8.87896 17.0549 8.89965 17.0841 8.91404 17.1044C8.76201 17.0669 8.60526 17.0167 8.43951 16.9636L8.12465 16.8649L8.13162 16.8823C8.23665 17.1386 8.63809 17.2942 9.02829 17.2305C9.03369 17.2381 9.16413 17.4172 9.17088 17.4263C8.87491 17.314 8.61313 17.262 8.35022 17.2643H8.3419V17.2928L8.3437 17.2951C8.52025 17.5525 8.89515 17.6652 9.32201 17.5904C9.3265 17.5935 9.41377 17.6549 9.41579 17.6565C9.41736 17.6583 9.47224 17.7277 9.48416 17.7429C9.45245 17.7407 9.2849 17.7306 9.2849 17.7306C9.08429 17.7165 8.87738 17.7016 8.67385 17.7268L8.66935 17.7275L8.64754 17.7733L8.65451 17.7773C8.82026 17.8746 9.04426 17.9802 9.30919 17.9326C9.30941 17.9326 9.60853 17.8661 9.6146 17.8646C9.62 17.8681 9.93035 18.0648 9.9344 18.067C9.93598 18.0708 9.94272 18.0849 9.9434 18.0862C9.9308 18.0858 9.91529 18.0856 9.91529 18.0856C9.64069 18.0778 9.3292 18.0688 9.07844 18.1385L9.07552 18.1394L9.03594 18.2021L9.04493 18.2061C9.29614 18.3202 9.58289 18.2686 9.8359 18.2231C9.90629 18.2104 9.97286 18.1985 10.0374 18.19C10.041 18.1912 10.408 18.3041 10.4193 18.3075V18.3101C10.4092 18.3108 9.67802 18.3622 9.67802 18.3622L9.69151 18.3758C9.8386 18.5227 10.1033 18.4673 10.337 18.4178C10.4463 18.3948 10.5392 18.3575 10.6116 18.3626C11.0845 18.4526 11.6441 18.5046 12.1764 18.4972C12.1557 18.5852 11.8053 18.6928 11.7149 18.71C12.1238 18.9511 12.7605 18.7993 12.8817 18.6455C13.1419 18.7667 13.7655 18.7906 14.1188 18.6455C14.1188 18.6455 13.7442 18.501 13.6895 18.4823C14.2277 18.4432 14.825 18.3999 15.2676 18.2874C15.4244 18.3068 15.9868 18.3425 16.1047 18.2548C16.1047 18.2548 15.3843 18.2421 15.3693 18.2414V18.238C15.3787 18.2338 15.6493 18.1068 15.6542 18.1045C15.6594 18.1059 15.9437 18.1726 15.9437 18.1726C16.221 18.2354 16.4699 18.1789 16.6296 18.1208L16.6321 18.1199L16.6703 18.0597L16.6647 18.0545C16.5239 17.923 16.1407 17.9516 15.84 17.9996V17.9802C15.8474 17.9753 16.1683 17.7657 16.1737 17.7623C16.5113 17.8782 16.8032 17.7891 17.0682 17.6752L17.0711 17.6739L17.0929 17.6277L17.0841 17.6246C16.8914 17.5558 16.6757 17.5857 16.4672 17.6152C16.4099 17.623 16.3514 17.6306 16.2938 17.6369C16.3845 17.5107 16.5291 17.5071 16.6964 17.5031C16.8133 17.5002 16.9343 17.4971 17.0515 17.4525C17.1453 17.4167 17.2177 17.3518 17.2879 17.2888C17.3187 17.2611 17.3475 17.2352 17.3783 17.2111L17.3803 17.2098L17.3992 17.1504L17.3767 17.127H17.3729C17.0967 17.1484 16.8363 17.2102 16.5768 17.3156H16.5702V17.3105C16.671 17.1714 16.8592 17.1301 17.0414 17.0904C17.2386 17.047 17.4428 17.0024 17.5418 16.8332C17.5422 16.8327 17.5926 16.7794 17.5926 16.7794V16.7497L17.5841 16.7501C17.3306 16.7649 17.0747 16.845 16.8232 16.9881C16.8365 16.9694 16.9049 16.8731 16.908 16.8691C16.9127 16.8673 17.3122 16.7323 17.3122 16.7323L17.6886 16.4385L17.7098 16.3724L17.6976 16.3729C17.4017 16.3874 17.1383 16.5749 16.9649 16.7158H16.9638C16.9712 16.697 17.0367 16.5314 17.0389 16.5253C17.1248 16.4836 17.2029 16.4548 17.2784 16.4273C17.4705 16.3575 17.6221 16.3019 17.7377 16.0773L17.7386 16.0755V16.0463L17.7294 16.0476C17.5004 16.0759 17.3468 16.1958 17.1981 16.3115C17.1981 16.3115 17.1401 16.3557 17.1134 16.3762C17.1237 16.3441 17.1505 16.2583 17.1527 16.2521C17.4046 16.1969 17.591 16.0275 17.7217 15.7342L17.7258 15.7255L17.6648 15.704L17.6619 15.7056C17.5317 15.7772 17.4302 15.8737 17.3324 15.9668C17.298 15.9994 17.262 16.0326 17.2258 16.0652C17.2553 15.9525 17.3612 15.8438 17.4741 15.729C17.5823 15.6192 17.6943 15.5056 17.7541 15.3745L17.7577 15.3665L17.75 15.3627C17.6446 15.3116 17.5099 15.4841 17.4017 15.6228C17.3657 15.6692 17.3342 15.7092 17.3081 15.7357C17.3398 15.5565 17.4248 15.4582 17.5153 15.3558C17.6041 15.2549 17.6961 15.1508 17.7383 14.9615L17.7395 14.9568L17.6992 14.914L17.6936 14.9175C17.5719 14.999 17.4271 15.1408 17.383 15.2957C17.3792 15.2979 17.3675 15.304 17.3664 15.3046C17.3738 15.1408 17.4422 15.0082 17.515 14.8689C17.576 14.7521 17.6387 14.6318 17.6736 14.4815V14.457L17.6331 14.4353L17.6293 14.4376C17.4732 14.528 17.3796 14.8271 17.3668 14.882H17.3657C17.3686 14.5979 17.4467 14.4137 17.5299 14.2192C17.5742 14.1159 17.6198 14.0094 17.6572 13.8824L17.6576 13.881V13.8165L17.6468 13.8199C17.4813 13.8728 17.3634 14.175 17.334 14.3681H17.3164C17.3153 14.3483 17.3142 14.3289 17.3142 14.3103C17.3142 14.1679 17.35 14.0583 17.3875 13.9431C17.4325 13.8045 17.479 13.6616 17.479 13.4415V13.4287L17.437 13.4064L17.4327 13.4107C17.3392 13.502 17.2733 13.7033 17.2364 14.0083H17.2319C17.1909 13.9469 17.1754 13.8815 17.1754 13.8129C17.1754 13.7082 17.2116 13.5959 17.249 13.4799L17.2838 13.3682C17.2998 13.3019 17.3074 13.2452 17.3074 13.1986C17.3074 13.1519 17.2993 13.1137 17.2832 13.087L17.2796 13.0812L17.2737 13.0832C17.1251 13.1323 17.0729 13.3602 17.0729 13.5656V13.5797H17.0556C17.0475 13.5475 17.0439 13.5122 17.0439 13.4752C17.0439 13.4145 17.0524 13.3486 17.0605 13.2801C17.07 13.2042 17.0801 13.1236 17.0801 13.0412C17.0801 12.9588 17.0704 12.8787 17.0409 12.7988V12.757H17.0128L17.0106 12.7601C16.9355 12.8465 16.9096 13.0363 16.9096 13.1925C16.9096 13.2088 16.9103 13.2249 16.911 13.2403C16.9058 13.243 16.8979 13.2472 16.8907 13.251C16.8653 13.1941 16.8633 13.0937 16.8633 12.984V12.9273C16.8633 12.7414 16.8581 12.54 16.7441 12.4838L16.734 12.4788L16.7211 12.5755C16.711 12.6469 16.7 12.7244 16.7 12.7999C16.7 12.8452 16.7043 12.8898 16.7151 12.9322C16.7101 12.9349 16.6995 12.9405 16.695 12.943C16.6098 12.8104 16.5788 12.5775 16.5516 12.3715L16.5365 12.2601H16.5095L16.507 12.2632C16.4677 12.3116 16.4558 12.3927 16.4558 12.4746C16.4558 12.5393 16.4632 12.6043 16.4713 12.6543H16.4677C16.3892 12.5914 16.3741 12.5159 16.3568 12.4286C16.3444 12.3652 16.3312 12.2996 16.2932 12.2304C16.2704 12.1926 16.2608 12.1851 16.2313 12.1632L16.2117 12.148C16.2117 12.148 16.2259 12.371 16.2279 12.4025C16.1899 12.3688 16.1555 12.332 16.1231 12.2962C16.0258 12.1889 15.934 12.0873 15.735 12.0717L15.7199 12.0703" fill="black"/>
<path fill-rule="evenodd" clip-rule="evenodd" d="M12.2065 12.7001C11.8816 12.7896 11.7428 13.1274 11.6576 13.4979C11.855 13.3095 12.0343 13.0812 12.4326 13.1392C12.162 13.3205 12.0383 13.7576 12.0282 13.8641C12.2311 13.6868 12.4168 13.4205 12.6734 13.3937C12.6629 14.1534 12.6523 14.9604 12.6417 15.7199C12.6383 15.7772 12.6584 15.7967 12.7072 15.804C12.7114 15.8047 12.7162 15.8054 12.7211 15.8058C12.7836 15.8043 12.8441 15.8172 12.8603 15.7868C12.9492 15.6301 12.8644 14.1092 12.8644 14.1092V13.3781C13.1372 13.4165 13.3315 13.6314 13.4844 13.8007C13.4547 13.5417 13.2865 13.2437 13.0913 13.1709C13.2629 13.0133 13.6776 13.1635 13.7943 13.3564C13.8654 13.0916 13.5328 12.7597 13.2685 12.7108C13.3589 12.4864 13.7745 12.4688 13.9171 12.4974C13.7981 12.3025 13.4073 12.1558 13.1583 12.2221C13.2813 12.048 13.5422 11.9341 13.6351 11.8698C13.3117 11.8446 13.094 11.8288 12.8896 12.0647C12.809 11.9649 12.8311 11.7971 12.7555 11.7026C12.7481 11.7379 12.7294 11.7759 12.7072 11.8154C12.6622 11.8957 12.603 11.9826 12.5981 12.0645C12.4002 11.8605 12.0273 11.8614 11.8541 11.942C12.0619 11.9955 12.3228 12.1491 12.4083 12.3534C12.0502 12.1092 11.631 12.2998 11.4968 12.6418C11.7012 12.5659 12.0343 12.5443 12.2065 12.7001Z" fill="#D9B41D"/>
<path fill-rule="evenodd" clip-rule="evenodd" d="M12.5194 16.3066C12.3658 16.4379 12.2155 16.5761 12.0617 16.7073C12.0095 16.6475 12.003 16.5281 12.0057 16.4568C11.9963 16.3439 11.9034 16.3655 11.8944 16.4568C11.8645 16.6307 11.9261 16.6968 11.958 16.8339C11.8307 16.9538 11.676 17.0949 11.5487 17.215C11.4054 17.0004 11.2006 17.0971 11.2692 17.3313C11.4437 17.9282 11.9468 17.2096 12.1487 17.0779C12.1948 17.1292 12.2135 17.229 12.2283 17.3136C12.2425 17.3924 12.299 17.3837 12.3239 17.3136C12.35 17.1679 12.3102 17.0734 12.2601 16.9712C12.4042 16.8417 12.5607 16.6908 12.7072 16.5573C12.7222 16.5435 12.7373 16.5298 12.7521 16.5162H12.7998C12.9482 16.6421 13.1385 16.8399 13.2869 16.9656C13.2757 17.0359 13.1477 17.2688 13.2971 17.3552C13.3371 17.3786 13.3438 17.2837 13.3573 17.0911C13.6079 17.083 13.8202 17.592 14.073 17.5195C14.1789 17.467 14.2812 17.3541 14.3219 17.2315C14.3401 17.1697 14.2459 17.0241 14.1523 17.0574C14.0833 17.0804 14.0624 17.154 13.9933 17.1766C13.8505 17.0567 13.7273 16.9473 13.584 16.8274C13.6418 16.7645 13.7675 16.4035 13.6106 16.3841C13.5361 16.3751 13.5914 16.6674 13.5044 16.7232C13.3508 16.6031 13.1794 16.4151 13.0256 16.295C13.2395 16.1126 14.0757 15.1433 15.7302 15.0093C14.1688 14.6919 13.0378 15.8097 12.7908 16.097C12.7627 16.0724 12.735 16.0476 12.7072 16.0233C11.8739 15.2967 10.9469 14.7577 9.82959 15.0623C10.3322 15.1279 11.4938 15.1926 12.5194 16.3066Z" fill="#D9B41D"/>
<path d="M19.15 17.9604C19.1536 18.146 19.1584 18.3317 19.1599 18.5174C19.1622 18.7661 19.1608 19.0146 19.1631 19.2633C19.1678 19.7955 19.1728 20.3275 19.1802 20.8595C19.1811 20.9222 19.168 20.9535 19.1024 20.9684C19.0187 20.9874 18.9389 21.0244 18.8464 21.0577C18.8433 21.0227 18.839 20.999 18.839 20.9756C18.8361 20.0411 18.8341 19.107 18.8296 18.1728C18.8293 18.1134 18.8622 18.0957 18.9015 18.0761C18.9793 18.0372 19.0574 17.9988 19.1354 17.9604H19.15Z" fill="black"/>
<path d="M12.417 19.6381V21.9995H8.30118V19.3423C8.43432 19.3907 8.55779 19.4336 8.67856 19.4825C8.6925 19.4883 8.6988 19.5294 8.69902 19.5539C8.70015 19.8932 8.6997 20.2326 8.6997 20.5719C8.6997 20.8887 8.70172 21.2057 8.69835 21.522C8.69767 21.5919 8.71836 21.6124 8.78538 21.612C9.25002 21.6095 9.71466 21.6106 10.1791 21.6104C10.2636 21.6104 10.2951 21.5515 10.2544 21.4722C10.2474 21.4591 10.2429 21.4439 10.2344 21.4323C10.0887 21.2367 10.1429 21.0398 10.2488 20.8579C10.3185 20.7382 10.4418 20.6692 10.5774 20.6462C10.9044 20.5911 11.2329 20.6364 11.5606 20.6424C11.5806 20.6429 11.6114 20.6645 11.618 20.6835C11.6461 20.7648 11.6672 20.8489 11.6942 20.9443C11.5908 20.9443 11.4967 20.9447 11.4027 20.944C11.2473 20.9434 11.0913 20.9373 10.9361 20.9429C10.8621 20.9456 10.7847 20.9586 10.7166 20.9865C10.4964 21.0764 10.5 21.2023 10.5391 21.4137C10.5616 21.5336 10.6792 21.61 10.8007 21.6102C11.2118 21.6115 11.6227 21.61 12.0338 21.6113C12.0844 21.6115 12.1035 21.5939 12.1015 21.5414C12.0921 21.2479 12.0813 20.9543 12.077 20.6608C12.0725 20.3415 12.075 20.0223 12.0738 19.703C12.0736 19.6595 12.0914 19.6379 12.1343 19.6381C12.2265 19.6385 12.3185 19.6381 12.417 19.6381Z" fill="black"/>
<path d="M17.0209 21.3462H17.0225C17.0225 21.3036 17.0169 21.2601 17.0239 21.2183C17.0416 21.1098 16.9523 20.9801 16.8415 20.9536C16.7652 20.9352 16.6825 20.9433 16.6026 20.9471C16.5889 20.948 16.566 20.9864 16.5655 21.0078C16.5626 21.1784 16.5642 21.3491 16.5637 21.5199C16.5637 21.5659 16.5813 21.5893 16.6289 21.5882C16.7407 21.5858 16.8525 21.5851 16.9643 21.5856C17.005 21.5858 17.0218 21.5677 17.0212 21.5271C17.0203 21.4668 17.0209 21.4063 17.0209 21.3462ZM16.2284 20.5997C16.5165 20.5997 16.7911 20.599 17.0657 20.6011C17.0857 20.6011 17.1077 20.6185 17.1251 20.6323C17.2987 20.7696 17.3614 20.9462 17.341 21.1743C17.3216 21.3911 17.3358 21.6112 17.3394 21.83C17.3401 21.8885 17.3234 21.9079 17.2658 21.9095C16.9474 21.9162 16.6292 21.9258 16.3111 21.9372C16.2578 21.9392 16.2392 21.9189 16.2295 21.8671C16.2255 21.845 16.192 21.8128 16.1713 21.8124C15.9111 21.8088 15.6509 21.8108 15.3906 21.8095C15.3351 21.8092 15.3263 21.8416 15.3281 21.8872C15.3315 21.9778 15.3355 22.068 15.3371 22.1582C15.3382 22.2312 15.3029 22.272 15.2319 22.272C14.8475 22.2716 14.4634 22.27 14.079 22.266C13.9864 22.2649 13.896 22.1617 13.8942 22.0669C13.8859 21.6373 13.8778 21.2081 13.867 20.7788C13.8652 20.7145 13.8798 20.6868 13.9468 20.6921C14.0217 20.6982 14.0975 20.6973 14.1728 20.6939C14.2308 20.6917 14.2468 20.7151 14.2466 20.7734C14.2441 21.1129 14.247 21.4521 14.2441 21.7914C14.2437 21.8633 14.2653 21.8867 14.3356 21.8867C14.5129 21.8869 14.6901 21.8963 14.8675 21.9005C14.9591 21.9028 14.9627 21.8981 14.9629 21.8046C14.9631 21.4628 14.9647 21.1208 14.9613 20.7792C14.9606 20.7087 14.9809 20.6866 15.0477 20.6924C15.1176 20.6982 15.1887 20.6977 15.2589 20.6939C15.3216 20.6904 15.3448 20.7113 15.3434 20.7792C15.3394 20.9625 15.3441 21.146 15.3409 21.3295C15.3394 21.396 15.3639 21.419 15.4257 21.4177C15.6664 21.4112 15.907 21.4061 16.1476 21.4038C16.2156 21.4034 16.2205 21.3605 16.2212 21.3094C16.2234 21.1033 16.2261 20.8973 16.2284 20.6912C16.2288 20.6642 16.2284 20.6372 16.2284 20.5997Z" fill="black"/>
<path d="M7.50146 20.2467C7.48436 20.1891 7.47469 20.1272 7.44861 20.0743C7.37192 19.9178 7.2372 19.8343 7.08022 19.783C7.03277 19.7674 7.01905 19.7872 7.01905 19.8334C7.01838 19.944 7.01365 20.0542 7.01455 20.1647C7.01478 20.1882 7.02715 20.2248 7.04401 20.2326C7.14274 20.2788 7.24372 20.3217 7.34605 20.359C7.48301 20.4092 7.48369 20.4067 7.50146 20.2467ZM7.81699 20.8309C7.69734 20.7769 7.59164 20.7293 7.48594 20.6813C7.2345 20.5666 6.98352 20.45 6.73073 20.338C6.68193 20.3161 6.66236 20.2882 6.67113 20.2364C6.68238 20.1688 6.66079 20.1284 6.59175 20.1107C6.54407 20.0987 6.50044 20.0701 6.43904 20.0415V21.0064C6.31737 20.93 6.21257 20.8662 6.11091 20.7976C6.09585 20.7876 6.08932 20.7541 6.08977 20.7318C6.09652 20.3933 6.10462 20.0545 6.11384 19.716C6.11609 19.6314 6.19795 19.6024 6.29061 19.652C6.39788 19.7095 6.50426 19.7676 6.61131 19.8252C6.62615 19.8332 6.64235 19.8386 6.67203 19.8513C6.67788 19.816 6.68755 19.7866 6.68688 19.7575C6.68418 19.6374 6.67721 19.5173 6.67406 19.397C6.67338 19.372 6.68238 19.347 6.68845 19.314C6.93044 19.4314 7.16141 19.5439 7.39261 19.6562C7.41892 19.6689 7.44478 19.6837 7.47222 19.6921C7.59659 19.7312 7.64674 19.846 7.72118 19.9388C7.80372 20.0413 7.82261 20.1531 7.81834 20.2802C7.81271 20.4576 7.81699 20.6356 7.81699 20.8309Z" fill="black"/>
<path d="M18.6002 18.2925C18.6002 18.4831 18.5993 18.6537 18.6004 18.8242C18.6058 19.6134 18.6123 20.4023 18.6179 21.1915C18.6195 21.3781 18.6193 21.3792 18.443 21.413C18.1666 21.4656 17.8899 21.517 17.6133 21.5681C17.5996 21.5708 17.5848 21.5688 17.5582 21.5688C17.5524 21.4348 17.5463 21.3011 17.5402 21.1609C17.7584 21.1189 17.9696 21.0776 18.1814 21.0388C18.263 21.0238 18.2815 21.0073 18.2815 20.9147C18.2819 20.6356 18.2808 20.3568 18.2801 20.0775C18.2788 19.5574 18.2781 19.0372 18.2756 18.5171C18.2752 18.4653 18.288 18.4365 18.3388 18.4166C18.4216 18.3845 18.5001 18.3407 18.6002 18.2925Z" fill="black"/>
<path d="M12.8135 22.0793C12.8113 22.0449 12.8084 22.0214 12.8081 21.9978C12.8061 21.1937 12.8048 20.3895 12.8009 19.5856C12.8007 19.5298 12.8169 19.4988 12.8677 19.4778C12.95 19.4441 13.0297 19.4033 13.1198 19.3608C13.1219 19.3952 13.1246 19.4216 13.1248 19.4477C13.1279 19.9879 13.1302 20.5279 13.1342 21.068C13.1363 21.3294 13.1401 21.5904 13.1473 21.8513C13.1491 21.912 13.127 21.9431 13.0755 21.9641C12.9912 21.9987 12.9082 22.0375 12.8135 22.0793Z" fill="black"/>
<path d="M18.0118 19.3257C18.0118 19.4134 18.012 19.4833 18.0118 19.5532C18.0112 19.9499 18.0094 20.3466 18.0107 20.743C18.0109 20.8073 17.9927 20.8348 17.9277 20.8462C17.8384 20.8618 17.7521 20.8946 17.6542 20.9228C17.6522 20.8866 17.6497 20.8602 17.6495 20.8339C17.6488 20.5555 17.6493 20.2767 17.6477 19.9981C17.6468 19.8476 17.6439 19.6974 17.6383 19.5471C17.6356 19.4831 17.6502 19.4471 17.7177 19.4295C17.813 19.4047 17.9043 19.3645 18.0118 19.3257Z" fill="black"/>
<path d="M14.6177 19.9487C14.7272 19.9485 14.8057 20.0298 14.8048 20.1425C14.8039 20.2559 14.725 20.3354 14.6145 20.3338C14.5075 20.332 14.4328 20.2541 14.4321 20.1432C14.4315 20.0278 14.5068 19.949 14.6177 19.9487Z" fill="black"/>
<path d="M18.0199 19.0671C17.9099 19.1868 17.7622 19.2321 17.6293 19.3053C17.6243 19.2977 17.6196 19.2904 17.6151 19.2832C17.6607 19.2489 17.7069 19.2147 17.7613 19.1743C17.7201 19.152 17.6864 19.1357 17.6549 19.116C17.5906 19.0765 17.5717 19.0232 17.6108 18.9582C17.6509 18.8921 17.6958 18.8251 17.7521 18.7742C17.8094 18.7222 17.8942 18.7584 17.8953 18.8258C17.8958 18.8459 17.8874 18.8707 17.8746 18.8847C17.8688 18.8914 17.838 18.8823 17.8249 18.8718C17.7736 18.8309 17.7296 18.8464 17.69 18.8879C17.6452 18.9348 17.656 18.9973 17.7102 19.0332C17.7939 19.089 17.8852 19.0839 17.9776 19.0725C17.9918 19.0709 18.006 19.0689 18.0199 19.0671Z" fill="black"/>
</g>
<defs>
<clipPath id="clip0_10295_220">
<rect width="25.5" height="27" fill="white" transform="translate(0 -0.00878906)"/>
</clipPath>
</defs>
</svg>
